<?xml version="1.0" encoding="UTF-8" standalone="no"?><!DOCTYPE svg PUBLIC "-//W3C//DTD SVG 1.1//EN" "http://www.w3.org/Graphics/SVG/1.1/DTD/svg11.dtd"><svg width="100%" height="100%" viewBox="0 0 599 424" version="1.1" xmlns="http://www.w3.org/2000/svg" xmlns:xlink="http://www.w3.org/1999/xlink" xml:space="preserve" xmlns:serif="http://www.serif.com/" style="fill-rule:evenodd;clip-rule:evenodd;stroke-linejoin:round;stroke-miterlimit:1.41421;"><path d="M120.065,416.713c0,0 -39.46,-34.785 -91.749,-150.244c-52.289,-115.459 -32.386,-251.409 61.585,-264.481c93.971,-13.071 166.941,42.588 166.941,42.588c0,0 104.813,-33.485 188.475,-10.584c83.661,22.9 75.427,135.117 75.427,135.117c0,0 52.757,31.16 74.287,101.956c21.531,70.796 -52.537,145.348 -52.537,145.348l-422.429,0.3Z" style="fill:#fff;fill-opacity:0.5;fill-rule:nonzero;"/><path d="M581.064,423.375l-491.519,0c-2.719,0 -4.923,-2.203 -4.923,-4.923l0,-0.137c0,-2.719 2.204,-4.922 4.923,-4.922l491.519,0c2.72,0 4.923,2.203 4.923,4.922l0,0.137c0,2.72 -2.203,4.923 -4.923,4.923Z" style="fill:#2d6fb3;fill-rule:nonzero;"/><path d="M482.478,351.196l-335.803,0c-5.818,0 -10.535,-4.399 -10.535,-9.825l-6.387,-229.896c0,-5.426 4.717,-9.829 10.535,-9.829l351.774,0c5.818,0 10.535,4.4 10.535,9.829l-9.584,229.896c0,5.426 -4.717,9.825 -10.535,9.825Z" style="fill:#eae9f3;fill-rule:nonzero;"/><path d="M498.504,103.699c1.118,1.559 1.772,3.436 1.772,5.456l-9.584,229.895c0,5.426 -4.716,9.825 -10.535,9.825l-335.803,0c-2.425,0 -4.661,-0.764 -6.442,-2.052c1.889,2.637 5.108,4.373 8.763,4.373l335.803,0c5.818,0 10.535,-4.399 10.535,-9.829l9.584,-229.895c0,-3.161 -1.605,-5.975 -4.093,-7.773Z" style="fill:#676e9c;fill-rule:nonzero;"/><path d="M150.744,324.285l-6.387,-206.073c0,-5.426 4.717,-9.829 10.535,-9.829l326.239,0c5.819,0 10.535,4.399 10.535,9.829l-9.584,206.073c0,5.426 -4.716,9.825 -10.534,9.825l-310.269,0c-5.818,0 -10.535,-4.399 -10.535,-9.825Z" style="fill:#6cbde1;fill-rule:nonzero;"/><path d="M150.267,329.338l-6.39,-206.073c0,-5.426 4.717,-9.826 10.535,-9.826l326.239,0c5.818,0 10.535,4.4 10.535,9.826l-9.584,206.073c0,5.426 -4.717,9.826 -10.535,9.826l-310.268,0c-5.818,0 -10.532,-4.4 -10.532,-9.826Z" style="fill:url(#_Linear1);fill-rule:nonzero;"/><path d="M425.342,236.312c-39.581,69.616 -108.53,38.914 -202.321,24.564c-31.507,-4.821 -55.822,5.43 -74.222,21.168l1.465,47.295c0,5.426 4.716,9.825 10.535,9.825l310.268,0c5.818,0 10.535,-4.399 10.535,-9.825l6.567,-141.23c-28.948,13.794 -52.42,29.899 -62.827,48.203Z" style="fill:url(#_Linear2);fill-rule:nonzero;"/><path d="M469.259,326.717l-5.877,0c-0.176,0 -0.32,-0.144 -0.32,-0.32c0,-0.177 0.144,-0.321 0.32,-0.321l5.27,0l0.081,-1.781c0.007,-0.177 0.164,-0.327 0.334,-0.304c0.176,0.006 0.313,0.157 0.304,0.333l-0.112,2.393Zm-13.538,0l-7.662,0c-0.177,0 -0.32,-0.144 -0.32,-0.32c0,-0.177 0.143,-0.321 0.32,-0.321l7.662,0c0.176,0 0.32,0.144 0.32,0.321c0,0.176 -0.144,0.32 -0.32,0.32Zm-15.321,0l-7.661,0c-0.177,0 -0.321,-0.144 -0.321,-0.32c0,-0.177 0.144,-0.321 0.321,-0.321l7.661,0c0.177,0 0.321,0.144 0.321,0.321c-0.004,0.176 -0.144,0.32 -0.321,0.32Zm-15.323,0l-7.662,0c-0.176,0 -0.32,-0.144 -0.32,-0.32c0,-0.177 0.144,-0.321 0.32,-0.321l7.662,0c0.176,0 0.32,0.144 0.32,0.321c0,0.176 -0.144,0.32 -0.32,0.32Zm-15.32,0l-7.662,0c-0.177,0 -0.32,-0.144 -0.32,-0.32c0,-0.177 0.143,-0.321 0.32,-0.321l7.662,0c0.176,0 0.32,0.144 0.32,0.321c-0.003,0.176 -0.144,0.32 -0.32,0.32Zm-15.324,0l-7.662,0c-0.176,0 -0.32,-0.144 -0.32,-0.32c0,-0.177 0.144,-0.321 0.32,-0.321l7.662,0c0.177,0 0.32,0.144 0.32,0.321c0,0.176 -0.143,0.32 -0.32,0.32Zm-15.32,0l-7.662,0c-0.176,0 -0.32,-0.144 -0.32,-0.32c0,-0.177 0.144,-0.321 0.32,-0.321l7.662,0c0.176,0 0.32,0.144 0.32,0.321c-0.003,0.176 -0.144,0.32 -0.32,0.32Zm-15.324,0l-7.661,0c-0.177,0 -0.321,-0.144 -0.321,-0.32c0,-0.177 0.144,-0.321 0.321,-0.321l7.661,0c0.177,0 0.321,0.144 0.321,0.321c0,0.176 -0.144,0.32 -0.321,0.32Zm-15.32,0l-7.662,0c-0.176,0 -0.32,-0.144 -0.32,-0.32c0,-0.177 0.144,-0.321 0.32,-0.321l7.662,0c0.177,0 0.32,0.144 0.32,0.321c-0.003,0.176 -0.143,0.32 -0.32,0.32Zm-15.323,0l-7.662,0c-0.177,0 -0.32,-0.144 -0.32,-0.32c0,-0.177 0.143,-0.321 0.32,-0.321l7.662,0c0.176,0 0.32,0.144 0.32,0.321c0,0.176 -0.144,0.32 -0.32,0.32Zm-15.321,0l-7.661,0c-0.177,0 -0.321,-0.144 -0.321,-0.32c0,-0.177 0.144,-0.321 0.321,-0.321l7.661,0c0.177,0 0.321,0.144 0.321,0.321c-0.004,0.176 -0.144,0.32 -0.321,0.32Zm-15.323,0l-7.662,0c-0.176,0 -0.32,-0.144 -0.32,-0.32c0,-0.177 0.144,-0.321 0.32,-0.321l7.662,0c0.176,0 0.32,0.144 0.32,0.321c0,0.176 -0.144,0.32 -0.32,0.32Zm-15.32,0l-7.662,0c-0.177,0 -0.32,-0.144 -0.32,-0.32c0,-0.177 0.143,-0.321 0.32,-0.321l7.662,0c0.176,0 0.32,0.144 0.32,0.321c-0.003,0.176 -0.144,0.32 -0.32,0.32Zm-15.324,0l-7.662,0c-0.176,0 -0.32,-0.144 -0.32,-0.32c0,-0.177 0.144,-0.321 0.32,-0.321l7.662,0c0.177,0 0.32,0.144 0.32,0.321c0,0.176 -0.143,0.32 -0.32,0.32Zm-15.32,0l-7.662,0c-0.176,0 -0.32,-0.144 -0.32,-0.32c0,-0.177 0.144,-0.321 0.32,-0.321l7.662,0c0.176,0 0.32,0.144 0.32,0.321c-0.003,0.176 -0.144,0.32 -0.32,0.32Zm-15.324,0l-7.661,0c-0.177,0 -0.321,-0.144 -0.321,-0.32c0,-0.177 0.144,-0.321 0.321,-0.321l7.661,0c0.177,0 0.321,0.144 0.321,0.321c0,0.176 -0.144,0.32 -0.321,0.32Zm-15.32,0l-7.662,0c-0.176,0 -0.32,-0.144 -0.32,-0.32c0,-0.177 0.144,-0.321 0.32,-0.321l7.662,0c0.177,0 0.32,0.144 0.32,0.321c-0.003,0.176 -0.143,0.32 -0.32,0.32Zm-15.323,0l-7.662,0c-0.177,0 -0.32,-0.144 -0.32,-0.32c0,-0.177 0.143,-0.321 0.32,-0.321l7.662,0c0.176,0 0.32,0.144 0.32,0.321c0,0.176 -0.144,0.32 -0.32,0.32Zm-15.321,0l-7.661,0c-0.177,0 -0.321,-0.144 -0.321,-0.32c0,-0.177 0.144,-0.321 0.321,-0.321l7.661,0c0.177,0 0.321,0.144 0.321,0.321c-0.004,0.176 -0.144,0.32 -0.321,0.32Zm-15.323,0l-7.662,0c-0.176,0 -0.32,-0.144 -0.32,-0.32c0,-0.177 0.144,-0.321 0.32,-0.321l7.662,0c0.176,0 0.32,0.144 0.32,0.321c0,0.176 -0.144,0.32 -0.32,0.32Zm-15.32,0l-1.968,0l-0.245,-7.966c-0.007,-0.176 0.134,-0.323 0.31,-0.33c0.18,0.007 0.324,0.134 0.33,0.311l0.229,7.347l1.347,0c0.176,0 0.32,0.144 0.32,0.321c-0.006,0.173 -0.147,0.317 -0.323,0.317Zm304.803,-9.737l-0.017,0c-0.176,-0.007 -0.313,-0.157 -0.303,-0.334l0.356,-7.652c0.01,-0.176 0.17,-0.327 0.333,-0.304c0.177,0.007 0.314,0.157 0.304,0.334l-0.356,7.652c-0.007,0.17 -0.147,0.304 -0.317,0.304Zm-306.935,-5.577c-0.169,0 -0.313,-0.137 -0.32,-0.31l-0.235,-7.659c-0.007,-0.176 0.134,-0.323 0.307,-0.33c0.183,0.003 0.324,0.134 0.33,0.311l0.239,7.658c0.006,0.177 -0.134,0.324 -0.311,0.33l-0.01,0Zm307.644,-9.731l-0.016,0c-0.177,-0.006 -0.314,-0.157 -0.304,-0.333l0.356,-7.652c0.007,-0.176 0.157,-0.32 0.334,-0.304c0.176,0.01 0.313,0.157 0.303,0.333l-0.356,7.652c-0.003,0.174 -0.147,0.304 -0.317,0.304Zm-308.121,-5.586c-0.173,0 -0.314,-0.137 -0.32,-0.31l-0.239,-7.659c-0.006,-0.176 0.134,-0.323 0.311,-0.33c0.176,0 0.323,0.134 0.33,0.311l0.239,7.658c0.006,0.177 -0.134,0.324 -0.311,0.33l-0.01,0Zm308.834,-9.718l-0.013,0c-0.177,-0.009 -0.314,-0.156 -0.304,-0.333l0.356,-7.652c0.006,-0.176 0.163,-0.323 0.333,-0.304c0.177,0.007 0.314,0.157 0.304,0.334l-0.356,7.651c-0.01,0.17 -0.15,0.304 -0.32,0.304Zm-309.308,-5.595c-0.17,0 -0.313,-0.138 -0.32,-0.311l-0.239,-7.659c-0.006,-0.176 0.134,-0.323 0.311,-0.33c0.176,0.01 0.323,0.134 0.33,0.311l0.239,7.658c0.006,0.177 -0.134,0.324 -0.311,0.331l-0.01,0Zm310.02,-9.708l-0.016,0c-0.177,-0.007 -0.314,-0.157 -0.304,-0.334l0.356,-7.652c0.007,-0.176 0.151,-0.323 0.334,-0.304c0.176,0.007 0.313,0.157 0.304,0.334l-0.357,7.652c-0.006,0.17 -0.147,0.304 -0.317,0.304Zm-310.494,-5.606c-0.17,0 -0.313,-0.137 -0.317,-0.311l-0.238,-7.658c-0.007,-0.177 0.134,-0.324 0.307,-0.33c0.19,-0.01 0.324,0.134 0.33,0.31l0.239,7.659c0.006,0.176 -0.134,0.323 -0.311,0.33l-0.01,0Zm311.207,-9.702l-0.016,0c-0.177,-0.006 -0.314,-0.157 -0.304,-0.333l0.356,-7.652c0.006,-0.176 0.16,-0.327 0.333,-0.304c0.177,0.01 0.314,0.157 0.304,0.333l-0.356,7.652c-0.007,0.17 -0.15,0.304 -0.317,0.304Zm-311.681,-5.612c-0.173,0 -0.313,-0.137 -0.32,-0.31l-0.239,-7.659c-0.006,-0.176 0.134,-0.323 0.311,-0.33c0.19,-0.003 0.324,0.134 0.33,0.31l0.239,7.659c0.006,0.176 -0.134,0.324 -0.311,0.33l-0.01,0Zm312.39,-9.691l-0.016,0c-0.177,-0.007 -0.314,-0.157 -0.304,-0.334l0.356,-7.652c0.007,-0.176 0.167,-0.327 0.334,-0.304c0.176,0.007 0.313,0.157 0.304,0.334l-0.357,7.652c-0.003,0.169 -0.147,0.304 -0.317,0.304Zm-312.867,-5.626c-0.17,0 -0.314,-0.137 -0.32,-0.31l-0.236,-7.659c-0.006,-0.176 0.135,-0.324 0.311,-0.33c0.196,-0.003 0.324,0.134 0.33,0.311l0.235,7.658c0.007,0.176 -0.134,0.324 -0.307,0.33l-0.013,0Zm313.58,-9.682l-0.013,0c-0.177,-0.006 -0.314,-0.157 -0.304,-0.333l0.356,-7.652c0.006,-0.177 0.154,-0.317 0.333,-0.304c0.177,0.007 0.314,0.157 0.304,0.333l-0.356,7.652c-0.01,0.17 -0.15,0.304 -0.32,0.304Zm-314.054,-5.632c-0.173,0 -0.314,-0.137 -0.317,-0.31l-0.238,-7.659c-0.007,-0.176 0.134,-0.323 0.31,-0.33c0.183,0 0.324,0.134 0.33,0.311l0.239,7.658c0.006,0.177 -0.134,0.324 -0.311,0.33l-0.013,0Zm314.766,-9.672l-0.016,0c-0.177,-0.006 -0.314,-0.156 -0.304,-0.333l0.356,-7.652c0.01,-0.176 0.183,-0.31 0.334,-0.304c0.176,0.007 0.313,0.157 0.304,0.333l-0.357,7.652c-0.006,0.17 -0.147,0.304 -0.317,0.304Zm-315.24,-5.641c-0.17,0 -0.314,-0.138 -0.32,-0.311l-0.239,-7.658c-0.006,-0.177 0.134,-0.324 0.311,-0.33c0.18,-0.02 0.323,0.134 0.33,0.307l0.239,7.658c0.006,0.177 -0.134,0.324 -0.308,0.33c-0.006,0.004 -0.009,0.004 -0.013,0.004Zm315.953,-9.666l-0.016,0c-0.177,-0.006 -0.314,-0.157 -0.304,-0.333l0.356,-7.652c0.01,-0.177 0.15,-0.311 0.333,-0.304c0.177,0.006 0.314,0.157 0.304,0.333l-0.356,7.652c-0.007,0.174 -0.15,0.304 -0.317,0.304Zm-316.427,-5.648c-0.173,0 -0.313,-0.137 -0.317,-0.311l-0.238,-7.658c-0.007,-0.176 0.134,-0.324 0.31,-0.33c0.177,0.003 0.324,0.134 0.33,0.31l0.239,7.659c0.006,0.176 -0.134,0.323 -0.311,0.33l-0.013,0Zm317.136,-9.656l-0.016,0c-0.177,-0.006 -0.314,-0.157 -0.304,-0.333l0.356,-7.652c0.007,-0.176 0.157,-0.314 0.334,-0.304c0.176,0.007 0.313,0.157 0.304,0.333l-0.357,7.652c-0.006,0.17 -0.147,0.304 -0.317,0.304Zm-317.613,-5.661c-0.17,0 -0.314,-0.137 -0.32,-0.31l-0.239,-7.659c-0.006,-0.176 0.134,-0.324 0.311,-0.33c0.173,-0.003 0.323,0.134 0.33,0.307l0.238,7.659c0.007,0.176 -0.134,0.323 -0.31,0.33c-0.003,0.003 -0.007,0.003 -0.01,0.003Zm318.326,-9.646l-0.013,0c-0.177,-0.01 -0.314,-0.157 -0.304,-0.333l0.356,-7.652c0.007,-0.177 0.167,-0.317 0.333,-0.304c0.177,0.006 0.314,0.157 0.304,0.333l-0.356,7.652c-0.01,0.173 -0.15,0.304 -0.32,0.304Zm-318.8,-5.668c-0.17,0 -0.314,-0.137 -0.317,-0.31l-0.239,-7.659c-0.006,-0.176 0.134,-0.323 0.308,-0.33c0.193,-0.006 0.323,0.134 0.33,0.311l0.235,7.658c0.007,0.177 -0.134,0.324 -0.307,0.33l-0.01,0Zm319.512,-9.636l-0.016,0c-0.177,-0.006 -0.314,-0.157 -0.304,-0.333l0.356,-7.652c0.007,-0.177 0.154,-0.317 0.334,-0.304c0.176,0.006 0.313,0.157 0.304,0.333l-0.357,7.652c-0.006,0.17 -0.147,0.304 -0.317,0.304Zm-319.986,-5.677c-0.17,0 -0.314,-0.138 -0.32,-0.311l-0.239,-7.658c-0.006,-0.177 0.134,-0.324 0.311,-0.331c0.17,-0.016 0.323,0.134 0.33,0.311l0.238,7.659c0.007,0.176 -0.134,0.323 -0.31,0.33l-0.01,0Zm320.699,-9.627l-0.016,0c-0.177,-0.006 -0.314,-0.156 -0.304,-0.333l0.3,-6.456l-0.529,0c-0.177,0 -0.321,-0.143 -0.321,-0.32c0,-0.176 0.144,-0.32 0.321,-0.32l1.199,0l-0.33,7.122c-0.01,0.173 -0.153,0.307 -0.32,0.307Zm-321.173,-5.687c-0.173,0 -0.314,-0.137 -0.32,-0.311l-0.046,-1.431l6.887,0c0.177,0 0.321,0.144 0.321,0.32c0,0.177 -0.144,0.32 -0.321,0.32l-6.23,0l0.023,0.772c0.007,0.176 -0.134,0.323 -0.311,0.33c0.004,0 0,0 -0.003,0Zm312.962,-1.102l-7.662,0c-0.176,0 -0.32,-0.143 -0.32,-0.32c0,-0.176 0.144,-0.32 0.32,-0.32l7.662,0c0.177,0 0.32,0.144 0.32,0.32c-0.003,0.177 -0.143,0.32 -0.32,0.32Zm-15.324,0l-7.661,0c-0.177,0 -0.321,-0.143 -0.321,-0.32c0,-0.176 0.144,-0.32 0.321,-0.32l7.661,0c0.177,0 0.321,0.144 0.321,0.32c0,0.177 -0.144,0.32 -0.321,0.32Zm-15.32,0l-7.662,0c-0.176,0 -0.32,-0.143 -0.32,-0.32c0,-0.176 0.144,-0.32 0.32,-0.32l7.662,0c0.177,0 0.321,0.144 0.321,0.32c-0.004,0.177 -0.144,0.32 -0.321,0.32Zm-15.323,0l-7.662,0c-0.177,0 -0.32,-0.143 -0.32,-0.32c0,-0.176 0.143,-0.32 0.32,-0.32l7.662,0c0.176,0 0.32,0.144 0.32,0.32c0,0.177 -0.144,0.32 -0.32,0.32Zm-15.321,0l-7.661,0c-0.177,0 -0.321,-0.143 -0.321,-0.32c0,-0.176 0.144,-0.32 0.321,-0.32l7.661,0c0.177,0 0.321,0.144 0.321,0.32c-0.003,0.177 -0.144,0.32 -0.321,0.32Zm-15.323,0l-7.662,0c-0.176,0 -0.32,-0.143 -0.32,-0.32c0,-0.176 0.144,-0.32 0.32,-0.32l7.662,0c0.176,0 0.32,0.144 0.32,0.32c0,0.177 -0.144,0.32 -0.32,0.32Zm-15.32,0l-7.662,0c-0.177,0 -0.32,-0.143 -0.32,-0.32c0,-0.176 0.143,-0.32 0.32,-0.32l7.662,0c0.176,0 0.32,0.144 0.32,0.32c-0.003,0.177 -0.144,0.32 -0.32,0.32Zm-15.324,0l-7.662,0c-0.176,0 -0.32,-0.143 -0.32,-0.32c0,-0.176 0.144,-0.32 0.32,-0.32l7.662,0c0.177,0 0.321,0.144 0.321,0.32c0,0.177 -0.144,0.32 -0.321,0.32Zm-15.32,0l-7.662,0c-0.176,0 -0.32,-0.143 -0.32,-0.32c0,-0.176 0.144,-0.32 0.32,-0.32l7.662,0c0.176,0 0.32,0.144 0.32,0.32c-0.003,0.177 -0.144,0.32 -0.32,0.32Zm-15.324,0l-7.661,0c-0.177,0 -0.321,-0.143 -0.321,-0.32c0,-0.176 0.144,-0.32 0.321,-0.32l7.661,0c0.177,0 0.321,0.144 0.321,0.32c0,0.177 -0.144,0.32 -0.321,0.32Zm-15.32,0l-7.662,0c-0.176,0 -0.32,-0.143 -0.32,-0.32c0,-0.176 0.144,-0.32 0.32,-0.32l7.662,0c0.177,0 0.321,0.144 0.321,0.32c-0.004,0.177 -0.144,0.32 -0.321,0.32Zm-15.323,0l-7.662,0c-0.177,0 -0.32,-0.143 -0.32,-0.32c0,-0.176 0.143,-0.32 0.32,-0.32l7.662,0c0.176,0 0.32,0.144 0.32,0.32c0,0.177 -0.144,0.32 -0.32,0.32Zm-15.321,0l-7.661,0c-0.177,0 -0.321,-0.143 -0.321,-0.32c0,-0.176 0.144,-0.32 0.321,-0.32l7.661,0c0.177,0 0.321,0.144 0.321,0.32c-0.003,0.177 -0.144,0.32 -0.321,0.32Zm-15.323,0l-7.662,0c-0.176,0 -0.32,-0.143 -0.32,-0.32c0,-0.176 0.144,-0.32 0.32,-0.32l7.662,0c0.176,0 0.32,0.144 0.32,0.32c0,0.177 -0.144,0.32 -0.32,0.32Zm-15.32,0l-7.662,0c-0.177,0 -0.32,-0.143 -0.32,-0.32c0,-0.176 0.143,-0.32 0.32,-0.32l7.662,0c0.176,0 0.32,0.144 0.32,0.32c-0.003,0.177 -0.144,0.32 -0.32,0.32Zm-15.324,0l-7.662,0c-0.176,0 -0.32,-0.143 -0.32,-0.32c0,-0.176 0.144,-0.32 0.32,-0.32l7.662,0c0.177,0 0.321,0.144 0.321,0.32c0,0.177 -0.144,0.32 -0.321,0.32Zm-15.32,0l-7.662,0c-0.176,0 -0.32,-0.143 -0.32,-0.32c0,-0.176 0.144,-0.32 0.32,-0.32l7.662,0c0.176,0 0.32,0.144 0.32,0.32c-0.003,0.177 -0.144,0.32 -0.32,0.32Zm-15.324,0l-7.661,0c-0.177,0 -0.321,-0.143 -0.321,-0.32c0,-0.176 0.144,-0.32 0.321,-0.32l7.661,0c0.177,0 0.321,0.144 0.321,0.32c0,0.177 -0.144,0.32 -0.321,0.32Zm-15.32,0l-7.662,0c-0.176,0 -0.32,-0.143 -0.32,-0.32c0,-0.176 0.144,-0.32 0.32,-0.32l7.662,0c0.177,0 0.321,0.144 0.321,0.32c-0.004,0.177 -0.144,0.32 -0.321,0.32Zm-15.323,0l-7.662,0c-0.177,0 -0.32,-0.143 -0.32,-0.32c0,-0.176 0.143,-0.32 0.32,-0.32l7.662,0c0.176,0 0.32,0.144 0.32,0.32c0,0.177 -0.144,0.32 -0.32,0.32Z" style="fill:#afd6ff;fill-rule:nonzero;"/><path d="M307.235,158.076c0,0 4.537,45.964 2.589,61.608l-11.208,118.744l96.719,0c0,0 -5.426,-101.188 -5.426,-108.849c0,-7.662 -1.595,-71.503 -1.595,-71.503l-15.163,-7.661l-38.145,-0.477l-27.771,8.138Z" style="fill:url(#_Linear3);fill-rule:nonzero;"/><path d="M333.41,150.656l-19.089,5.345c0,0 7.643,38.161 12.202,42.721c4.56,4.56 -0.774,7.979 3.057,11.81c3.83,3.831 25.057,32.611 25.057,32.611l-21.227,-92.487Z" style="fill:#87a2c2;fill-rule:nonzero;"/><path d="M374.109,151.906l-19.472,91.239c0,0 20.704,-36.587 22.472,-38.358c1.772,-1.772 0,-9.257 0,-12.768c0,-3.51 11.012,-34.04 11.012,-34.04c0,0 -10.051,-6.073 -14.012,-6.073Z" style="fill:#87a2c2;fill-rule:nonzero;"/><path d="M335.006,149.938l-20.43,2.075c0,0 7.388,37.573 11.947,42.136c4.56,4.56 -0.774,7.979 3.057,11.81c3.831,3.831 25.057,37.188 25.057,37.188l-19.631,-93.209Z" style="fill:#badcff;fill-rule:nonzero;"/><path d="M373.151,150.416l-18.514,92.729c0,0 20.704,-41.163 22.472,-42.934c1.772,-1.772 0,-9.257 0,-12.768c0,-3.51 11.202,-32.559 11.202,-32.559c0,0 -11.198,-4.468 -15.16,-4.468Z" style="fill:#badcff;fill-rule:nonzero;"/><path d="M351.924,338.428l2.713,-95.282l-0.559,95.282l-2.154,0Z" style="fill:#7696b5;fill-rule:nonzero;"/><rect x="289.359" y="351.197" width="72.78" height="7.662" style="fill:#8088c2;fill-rule:nonzero;"/><path d="M355.912,394.237l-60.327,0l-1.915,-35.38l64.161,0l-1.919,35.38Z" style="fill:#8792ce;fill-rule:nonzero;"/><path d="M357.831,358.857l-64.161,0l1.915,35.38l7.933,0c0.782,-5.504 2.338,-11.371 5.312,-16.078c5.38,-8.505 31.928,-11.849 48.664,-13.124l0.337,-6.178Z" style="fill:#370c62;fill-opacity:0.28;fill-rule:nonzero;"/><path d="M410.339,413.389l-164.071,0c0,-10.577 8.574,-19.151 19.151,-19.151l125.769,0c10.577,0 19.151,8.574 19.151,19.151Z" style="fill:#676e9c;fill-rule:nonzero;"/><path d="M233.393,162.856l-5.574,-19.956l-24.498,6.283c0,0 3.494,10.868 5.932,12.362c1.795,1.098 7.198,4.406 9.931,6.076l21.9,43.444l15.758,-19.468l-23.449,-28.741Z" style="fill:#fd5e5a;fill-rule:nonzero;"/><path d="M349.208,51.098c0,0 18.674,-2.285 26.653,1.523c7.979,3.808 23.622,19.184 19.471,49.027c0,0 3.351,1.065 4.308,5.635c0.958,4.566 1.036,12.715 -6.864,20.249c-7.9,7.535 -21.227,6.701 -28.091,6.701c-6.864,0 -26.175,-5.786 -31.121,-16.445c-4.945,-10.659 15.644,-66.69 15.644,-66.69Z" style="fill:#26004a;fill-rule:nonzero;"/><path d="M358.252,55.434c-5.007,-0.471 -9.181,1.83 -12.532,5.606c-4.236,12.47 -11.015,33.804 -12.587,46.97c0.693,5.296 2.441,10.548 4.962,14.706c0.438,0.723 0.898,1.416 1.379,2.073c6.619,5.203 16.356,8.351 22.338,9.204c18.615,-2.5 23.851,-19.69 23.387,-38.639c-0.124,-5.105 3.524,-21.001 -4.376,-31.271c-5.312,-6.9 -14.458,-9.447 -22.571,-8.649Z" style="fill:#130025;fill-rule:nonzero;"/><path d="M339.634,120.729c0,0 0.958,12.927 0,18.834c-0.958,5.906 -4.628,10.375 -4.628,10.375l19.631,93.209l18.514,-92.729c0,0 -4.596,-2.817 -5.907,-10.852c-1.31,-8.034 -1.278,-28.728 -1.278,-28.728l-26.332,9.891Z" style="fill:#fc7575;fill-rule:nonzero;"/><path d="M354.637,243.147l14.412,-72.182c-10.989,1.196 -21.89,-0.187 -30.007,-1.854l15.595,74.036Z" style="fill:#00158e;fill-rule:nonzero;"/><path d="M369.049,170.963c-0.102,0.01 -0.203,0.023 -0.307,0.032c-3.609,14.749 -11.853,47.442 -14.664,50.253c-2.7,2.7 -10.937,-33.321 -15.016,-52.135c-0.006,0 -0.013,-0.004 -0.02,-0.004l15.595,74.039l14.412,-72.185Z" style="fill:#000f6b;fill-rule:nonzero;"/><path d="M343.779,119.172c2.817,10.986 9.652,21.302 22.661,17.88c0.157,-0.043 0.308,-0.088 0.465,-0.134c-0.961,-9.185 -0.935,-26.084 -0.935,-26.084l-22.191,8.338Z" style="fill:#fd5e5a;fill-opacity:0.53;fill-rule:nonzero;"/><path d="M361.815,58.007c0,0 11.333,-1.755 17.556,7.342c6.224,9.096 3.351,24.42 3.351,28.251c0,3.831 1.837,31.601 -16.282,35.909c-18.118,4.308 -24.256,-15.48 -24.256,-27.45c0,-11.97 4.448,-42.555 19.631,-44.052Z" style="fill:#fc7575;fill-rule:nonzero;"/><path d="M229.741,144.132c-0.219,-0.268 -18.347,-17.526 -21.932,-16.445c-5.966,1.556 7.292,11.451 8.727,13.304c0.716,0.928 1.36,2.092 1.912,3.197c-0.471,0.134 -0.909,0.255 -1.304,0.349c-3.413,0.821 -12.526,2.524 -13.82,4.642c0,0 -0.245,11.934 2.889,11.999c3.135,0.066 6.306,-1.082 9.672,-0.742c1.684,0.17 3.413,-0.657 4.72,-1.526c0.21,-0.141 0.409,-0.281 0.595,-0.419c-0.434,0.733 -0.546,1.556 -0.104,2.455c1.608,3.266 12.728,-2.366 13.208,-4.452c0.484,-2.088 -1.997,-9.204 -4.563,-12.362Zm-2.546,10.79c-1.023,0.245 -2.987,0.951 -4.468,2.014c-0.428,-1.125 -2.556,-6.865 -2.207,-9.156l0.004,0c1.549,-1.638 4.929,-1.683 6.583,-0.977c0.219,0.202 0.379,0.467 0.461,0.807c0.523,2.17 1.644,6.825 -0.373,7.312Z" style="fill:#fc7575;fill-rule:nonzero;"/><path d="M228.391,189.041c0,0 25.856,66.393 35.75,71.502c9.894,5.109 46.163,-50.118 46.163,-50.118c0,0 1.399,-52.345 -3.069,-52.345c-4.468,0 -22.842,21.854 -28.127,34.998c-5.377,13.372 -5.187,20.128 -12.411,7.135c-7.381,-13.274 -20.351,-31.104 -20.351,-31.104c-7.446,7.446 -17.955,19.932 -17.955,19.932Z" style="fill:#badcff;fill-rule:nonzero;"/><path d="M375.861,52.741c0,0 -6.384,-0.798 -10.215,2.236c-3.831,3.033 -12.29,4.468 -17.236,27.931c-4.948,23.462 -0.957,26.175 -0.957,26.175c0,0 5.259,10.852 -1.52,19.151c-6.779,8.299 -20.08,5.165 -27.529,0.798c-10.829,-6.348 -8.904,-28.369 -4.344,-42.777c0.637,-2.011 0.951,-3.207 1.693,-4.887c1.432,-3.239 1.906,-6.966 3.975,-10.372c6.704,-11.028 18.909,-21.105 40.492,-20.563c0,-0.003 9.734,-0.565 15.641,2.308Z" style="fill:#320063;fill-rule:nonzero;"/><path d="M184.608,150.736c-0.236,0 -0.471,-0.069 -0.68,-0.213c-0.546,-0.376 -0.683,-1.121 -0.307,-1.667l45.483,-65.909c0.376,-0.546 1.121,-0.683 1.667,-0.307c0.546,0.376 0.683,1.121 0.307,1.667l-45.483,65.912c-0.232,0.337 -0.608,0.517 -0.987,0.517Z" style="fill:#2c46e6;fill-rule:nonzero;"/><path d="M106.572,233.813c-0.295,0 -0.589,-0.108 -0.818,-0.324c-0.483,-0.451 -0.51,-1.209 -0.055,-1.693l75.49,-80.707c0.451,-0.484 1.209,-0.51 1.693,-0.055c0.484,0.451 0.51,1.209 0.055,1.693l-75.489,80.706c-0.239,0.252 -0.559,0.38 -0.876,0.38Z" style="fill:#2c46e6;fill-rule:nonzero;"/><path d="M182.061,153.105c-0.241,0 -0.487,-0.072 -0.696,-0.226l-60.722,-43.522c-0.539,-0.386 -0.66,-1.134 -0.274,-1.673c0.385,-0.54 1.134,-0.661 1.673,-0.275l60.716,43.522c0.539,0.386 0.66,1.134 0.274,1.674c-0.232,0.327 -0.598,0.5 -0.971,0.5Z" style="fill:#2c46e6;fill-rule:nonzero;"/><path d="M214.447,291.988c-0.546,0 -1.036,-0.373 -1.167,-0.925l-32.386,-138.882c-0.15,-0.644 0.252,-1.288 0.896,-1.439c0.644,-0.15 1.288,0.252 1.438,0.896l32.386,138.882c0.151,0.644 -0.251,1.288 -0.895,1.439c-0.092,0.016 -0.183,0.029 -0.272,0.029Z" style="fill:#2c46e6;fill-rule:nonzero;"/><path d="M195.545,151.905c0,7.446 -6.038,13.483 -13.484,13.483c-7.446,0 -13.483,-6.037 -13.483,-13.483c0,-7.446 6.037,-13.483 13.483,-13.483c7.446,0 13.484,6.037 13.484,13.483Z" style="fill:#2c46e6;fill-rule:nonzero;"/><path d="M190.655,151.242c0,4.746 -3.847,8.593 -8.594,8.593c-4.746,0 -8.593,-3.847 -8.593,-8.593c0,-4.746 3.847,-8.594 8.593,-8.594c4.747,0 8.594,3.848 8.594,8.594Z" style="fill:#badcff;fill-rule:nonzero;"/><path d="M118.646,138.792l-57.486,0c-3.445,0 -6.24,-2.795 -6.24,-6.24l0,-48.334c0,-3.445 2.795,-6.239 6.24,-6.239l57.486,0c3.445,0 6.24,2.794 6.24,6.239l0,48.334c0,3.449 -2.792,6.24 -6.24,6.24Z" style="fill:#badcff;fill-rule:nonzero;"/><path d="M121.411,78.623c0.412,0.834 0.647,1.772 0.647,2.765l0,48.337c0,3.446 -2.794,6.24 -6.239,6.24l-57.487,0c-0.993,0 -1.931,-0.232 -2.765,-0.647c1.02,2.059 3.141,3.475 5.593,3.475l57.486,0c3.445,0 6.24,-2.795 6.24,-6.24l0,-48.334c0,-2.455 -1.416,-4.576 -3.475,-5.596Z" style="fill:#2c46e6;fill-rule:nonzero;"/><path d="M118.646,258.536l-57.486,0c-3.445,0 -6.24,-2.795 -6.24,-6.24l0,-48.337c0,-3.446 2.795,-6.24 6.24,-6.24l57.486,0c3.445,0 6.24,2.794 6.24,6.24l0,48.333c0,3.449 -2.792,6.244 -6.24,6.244Z" style="fill:#badcff;fill-rule:nonzero;"/><path d="M121.411,198.367c0.412,0.834 0.647,1.772 0.647,2.765l0,48.338c0,3.445 -2.794,6.239 -6.239,6.239l-57.487,0c-0.993,0 -1.931,-0.232 -2.765,-0.647c1.02,2.059 3.141,3.475 5.593,3.475l57.486,0c3.445,0 6.24,-2.795 6.24,-6.24l0,-48.337c0,-2.452 -1.416,-4.573 -3.475,-5.593Z" style="fill:#2c46e6;fill-rule:nonzero;"/><path d="M193.979,94.161l66.498,0c3.68,0 6.664,-2.984 6.664,-6.665l0,-47.483c0,-3.681 -2.984,-6.665 -6.664,-6.665l-66.498,0c-3.681,0 -6.665,2.984 -6.665,6.665l0,47.483c0,3.681 2.984,6.665 6.665,6.665Z" style="fill:#badcff;fill-rule:nonzero;"/><path d="M191.279,33.992c-0.471,0.834 -0.735,1.772 -0.735,2.766l0,48.333c0,3.445 3.186,6.24 7.119,6.24l65.592,0c1.134,0 2.203,-0.232 3.154,-0.647c-1.163,2.059 -3.582,3.475 -6.383,3.475l-65.593,0c-3.932,0 -7.119,-2.795 -7.119,-6.24l0,-48.331c0,-2.455 1.615,-4.576 3.965,-5.596Z" style="fill:#2c46e6;fill-rule:nonzero;"/><path d="M185.591,269.842l66.501,0c3.681,0 6.665,2.984 6.665,6.665l0,47.484c0,3.68 -2.984,6.664 -6.665,6.664l-66.501,0c-3.68,0 -6.664,-2.984 -6.664,-6.664l0,-47.484c0,-3.681 2.984,-6.665 6.664,-6.665Z" style="fill:#badcff;fill-rule:nonzero;"/><path d="M182.892,330.012c-0.471,-0.833 -0.736,-1.772 -0.736,-2.765l0,-48.334c0,-3.445 3.187,-6.24 7.119,-6.24l65.593,0c1.134,0 2.203,0.232 3.154,0.647c-1.164,-2.059 -3.583,-3.474 -6.384,-3.474l-65.592,0c-3.932,0 -7.119,2.794 -7.119,6.24l0,48.337c0,2.448 1.614,4.569 3.965,5.589Z" style="fill:#2c46e6;fill-rule:nonzero;"/><path d="M80.246,96.207c0,1.141 -0.925,2.063 -2.063,2.063c-1.141,0 -2.062,-0.925 -2.062,-2.063c0,-1.141 0.925,-2.063 2.062,-2.063c1.141,0 2.063,0.926 2.063,2.063Z" style="fill:#7686e6;fill-rule:nonzero;"/><path d="M103.398,90.409c0,0.716 -0.582,1.298 -1.298,1.298c-0.716,0 -1.298,-0.582 -1.298,-1.298c0,-0.716 0.582,-1.298 1.298,-1.298c0.716,0 1.298,0.582 1.298,1.298Z" style="fill:#7686e6;fill-rule:nonzero;"/><path d="M88.551,127.659c-9.923,0 -17.994,-8.074 -17.994,-17.994c0,-4.469 1.641,-8.747 4.619,-12.042l0.454,-0.5l0.334,0.588c0.199,0.353 0.484,0.657 0.823,0.879l0.471,0.311l-0.376,0.421c-2.53,2.841 -3.922,6.515 -3.922,10.346c0,8.596 6.995,15.591 15.591,15.591c8.166,0 14.909,-6.272 15.543,-14.356c-2.997,-0.588 -5.204,-3.232 -5.204,-6.331l0,-11.454l1.393,-2.124l0.421,0.529c0.239,0.301 0.572,0.517 0.938,0.615l0.654,0.176l-1,1.524l0,10.737c0,2.233 1.817,4.05 4.05,4.05c2.232,0 4.05,-1.817 4.05,-4.05l0,-10.698l-1.151,-1.553l0.641,-0.212c0.359,-0.118 0.68,-0.357 0.899,-0.667l0.389,-0.552l1.621,2.19l0,11.492c0,3.138 -2.249,5.799 -5.295,6.348c-0.644,9.414 -8.453,16.736 -17.949,16.736Z" style="fill:#7686e6;fill-rule:nonzero;"/><path d="M109.621,90.409c0,0.716 -0.582,1.298 -1.297,1.298c-0.716,0 -1.298,-0.582 -1.298,-1.298c0,-0.716 0.582,-1.298 1.298,-1.298c0.715,0 1.297,0.582 1.297,1.298Z" style="fill:#7686e6;fill-rule:nonzero;"/><path d="M95.984,106.013l-4.88,0l0,-4.88l-5.387,0l0,4.88l-4.88,0l0,5.387l4.88,0l0,4.88l5.387,0l0,-4.88l4.88,0l0,-5.387Z" style="fill:#7686e6;fill-rule:nonzero;"/><path d="M239.279,64.661l-1.559,0l-3.229,-4.452l-2.439,10.045l-1.879,-17.432l-5.05,11.359l-2.213,-4.027l-2.827,5.073l-3.851,-4.707l-1.736,8.574l-1.627,-14.739l-5.541,10.002l-13.323,0c-0.333,0 -0.605,0.272 -0.605,0.608c0,0.334 0.272,0.605 0.605,0.605l14.621,0l3.02,-5.455l2.308,20.883l3.357,-16.588l3.092,3.778l2.494,-4.478l2.412,4.387l3.746,-8.424l2.285,21.221l4.04,-16.631l1.167,1.611l3.54,0c-0.307,-0.415 -0.576,-0.82 -0.808,-1.213Z" style="fill:#7686e6;fill-rule:nonzero;"/><path d="M251.066,56.509c0,0 2.069,-2.866 6.158,-2.866c3.645,0 6.159,2.945 6.159,6.374c0,3.968 -3.426,8.665 -12.314,12.747c-8.89,-4.082 -12.313,-8.776 -12.313,-12.748c0,-3.428 2.511,-6.373 6.159,-6.373c4.082,0 6.151,2.866 6.151,2.866Z" style="fill:#fd6100;fill-rule:nonzero;"/><path d="M233.507,310.19l-31.683,-4.056c-2.014,-0.258 -3.436,-2.099 -3.181,-4.112l2.145,-16.752c0.258,-2.014 2.098,-3.435 4.112,-3.177l31.683,4.056c2.013,0.258 3.435,2.099 3.177,4.112l-2.144,16.752c-0.255,2.014 -2.096,3.435 -4.109,3.177Z" style="fill:#fff;fill-opacity:0.66;fill-rule:nonzero;"/><path d="M214.176,288.533l-0.863,-1.948c-0.252,-0.566 -0.811,-0.929 -1.425,-0.929l-14.621,0c-0.863,0 -1.559,0.7 -1.559,1.563l0,9.927l0.026,0l0,18.713c0,0.863 0.7,1.559 1.559,1.559l43.13,0c0.863,0 1.56,-0.7 1.56,-1.559l0,-24.836c0,-0.863 -0.7,-1.562 -1.56,-1.562l-24.815,0c-0.621,0 -1.184,-0.366 -1.432,-0.928Z" style="fill:#7686e6;fill-rule:nonzero;"/><path d="M228.264,303.747c0,4.759 -3.857,8.616 -8.616,8.616c-4.759,0 -8.616,-3.857 -8.616,-8.616c0,-4.759 3.857,-8.616 8.616,-8.616c4.759,0 8.616,3.857 8.616,8.616Z" style="fill:#eae9f3;fill-rule:nonzero;"/><path d="M226.362,301.398l-4.325,0l0,-4.328l-4.775,0l0,4.328l-4.325,0l0,4.776l4.325,0l0,4.324l4.775,0l0,-4.324l4.325,0l0,-4.776Z" style="fill:#fd6100;fill-rule:nonzero;"/><path d="M86.499,222.97c2.365,0 4.282,-1.917 4.282,-4.282c0,-2.365 -1.917,-4.282 -4.282,-4.282c-2.365,0 -4.282,1.917 -4.282,4.282c0,2.365 1.917,4.282 4.282,4.282Z" style="fill:#00b3bf;fill-rule:nonzero;"/><rect x="93.022" y="224.343" width="6.204" height="5.971" style="fill:#7686e6;fill-rule:nonzero;"/><rect x="93.938" y="230.663" width="4.37" height="1.677" style="fill:#7686e6;fill-rule:nonzero;"/><path d="M92.333,219.388c0,-1.35 -0.412,-2.605 -1.114,-3.648l0,-4.118c0.99,0 1.794,-0.804 1.794,-1.795l0,-3.268l6.221,0l0,3.268c0,0.991 0.804,1.795 1.794,1.795l0,10.6c0,0.925 -0.749,1.674 -1.674,1.674l-6.462,0c-0.702,0 -1.304,-0.435 -1.552,-1.046c0.627,-1.007 0.993,-2.194 0.993,-3.462Z" style="fill:#7686e6;fill-rule:nonzero;"/><rect x="91.522" y="204.355" width="9.201" height="2.2" style="fill:#7686e6;fill-rule:nonzero;"/><path d="M79.295,218.764c-0.02,0.206 -0.03,0.412 -0.03,0.624c0,3.131 2.216,5.756 5.161,6.387c-0.912,0.65 -1.624,1.533 -2.039,2.638c-0.719,1.912 -0.376,4.066 0.497,5.867c1.042,2.154 2.837,3.87 4.886,5.066l-0.774,2.73c-10.718,-3.047 -15.272,-14.938 -7.701,-23.312Z" style="fill:#7686e6;fill-rule:nonzero;"/><rect x="82.013" y="239.258" width="8.969" height="6.017" style="fill:#7686e6;fill-rule:nonzero;"/><path d="M74.529,248.488l33.298,0l0,-0.993c0,-1.226 -0.994,-2.22 -2.22,-2.22l-28.862,0c-1.226,0 -2.219,0.994 -2.219,2.22l0,0.993l0.003,0Z" style="fill:#8088c2;fill-rule:nonzero;"/><rect x="87.608" y="234.413" width="17.131" height="3.011" style="fill:#fff;fill-rule:nonzero;"/><path d="M388.121,157.982c0,0 -3.288,36.485 1.681,64.272c1.248,6.982 20.523,10.081 31.055,18.011c17.553,13.215 29.787,31.052 32.909,38.138c7.116,-3.209 7.073,-35.255 3.177,-47.984c-4.233,-8.462 -68.822,-72.437 -68.822,-72.437Z" style="fill:#badcff;fill-rule:nonzero;"/><path d="M490.637,203.953l-67.904,-8.211l-42.531,81.037l55.07,0l55.365,-72.826Z" style="fill:#00158e;fill-rule:nonzero;"/><path d="M435.272,276.779l55.365,-72.826l-67.9,-8.211l-1.213,2.311c10.617,2.779 31.154,9.293 34.203,18.723c3.256,10.074 -20.445,45.382 -30.715,60.003l10.26,0Z" style="fill:#000f6b;fill-opacity:0.44;fill-rule:nonzero;"/><path d="M420.236,192.055l-43.277,83.276l3.242,1.448l42.532,-81.037l67.904,8.211l-4.138,-3.24l-66.263,-8.658Z" style="fill:#0021db;fill-rule:nonzero;"/><path d="M540.873,190.26l3.801,14.523l12.225,-4.737l-2.196,-12.858l-13.83,3.072Z" style="fill:#fc7575;fill-rule:nonzero;"/><path d="M486.266,157.352c-1.049,-1.501 -8.21,-10.682 -9.433,-9.829c-1.219,0.853 3.187,7.031 3.844,7.969c0,0 -2.514,-0.2 -3.752,2.624c-0.831,1.893 4.389,10.905 6.579,14.487c1.909,-0.598 4.733,-2.883 4.635,-4.854c0.004,-3.713 -1.065,-9.247 -1.873,-10.397Z" style="fill:#fc7575;fill-rule:nonzero;"/><path d="M551.552,187.887l-10.679,2.373l1.386,5.292c2.674,-0.471 5.468,-1.922 7.142,-4.799c0.418,-0.725 1.255,-1.726 2.151,-2.866Z" style="fill:#fd5e5a;fill-opacity:0.53;fill-rule:nonzero;"/><path d="M537.297,407.928l-1.471,8.318l-6.547,0.468l1.118,-14.585l6.9,5.799Z" style="fill:#fc7575;fill-rule:nonzero;"/><path d="M536.967,414.965c0,0 -6.054,0.108 -7.381,-0.938c-1.327,-1.046 -2.729,0.977 -4.87,3.687c-2.141,2.709 -10.133,2.383 -11.107,4.52c-0.739,1.618 22.979,1.144 24.175,1.108c0.847,-0.026 -0.817,-8.377 -0.817,-8.377Z" style="fill:#00123f;fill-rule:nonzero;"/><path d="M555.075,406.623l-1.471,8.322l-6.547,0.468l1.115,-14.585l6.903,5.795Z" style="fill:#fc7575;fill-rule:nonzero;"/><path d="M554.745,413.664c0,0 -6.054,0.108 -7.381,-0.938c-1.327,-1.046 -2.729,0.977 -4.87,3.687c-2.141,2.71 -9.695,3.105 -10.76,5.197c-1.066,2.092 22.782,1.755 23.305,1.092c0.526,-0.66 -0.294,-9.038 -0.294,-9.038Z" style="fill:#00123f;fill-rule:nonzero;"/><path d="M541.21,293.422l0.686,59.549l4.632,57.904l8.688,1.484c0,0 7.233,-102.296 14.722,-113.599c7.479,-11.29 -0.994,-29.931 -1.033,-29.967l-27.695,24.629Z" style="fill:#2164a9;fill-rule:nonzero;"/><path d="M565.836,296.727c3.219,-4.861 5.599,-11.307 5.001,-18.645c-0.193,-2.376 -4.008,-5.011 -4.488,-7.018l-25.143,22.358l0.687,59.549l2.579,32.252c4.635,-27.781 13.248,-67.675 14.977,-79.102c0.742,-1.023 3.203,-4.583 6.387,-9.394Z" style="fill:#0b56a2;fill-rule:nonzero;"/><path d="M531.217,265.596c0,0 -4.413,54.338 -4.769,72.499c-0.363,18.556 1.968,74.218 1.968,74.218l10.228,0.046c0,0 15.189,-90.542 17.722,-107.474c0,0 -1.448,2.439 6.041,-8.865c7.479,-11.289 2,-27.195 1.964,-27.228l-13.3,4.966l-19.854,-8.162Z" style="fill:#1b87f4;fill-rule:nonzero;"/><path d="M577.328,239.228l-9.44,15.843l4.112,9.433c0,0 25.051,-19.707 22.897,-25.11c-1.814,-4.546 -26.849,-31.425 -33.611,-38.809c-1.226,-1.337 -3.122,-1.811 -4.835,-1.219l-11.613,4.024c0.003,0.003 33.517,32.35 32.49,35.838Z" style="fill:#be4800;fill-rule:nonzero;"/><path d="M534.669,199.191c0,0 -2.978,76.444 -10.604,91.941c0,0 34.609,-5.099 50.495,-5.096c0,0 -0.376,-64.749 -8.054,-79.115c-7.682,-14.365 -24.368,-11.724 -31.837,-7.73Z" style="fill:#fd7b2a;fill-rule:nonzero;"/><path d="M552.163,227.366c7.41,-3.936 9.786,-9.375 9.93,-16.298c0.101,-5.033 -16.794,-2.402 -27.901,-1.709c-0.206,3.929 -0.478,8.776 -0.824,14.147c4.266,4.677 13.437,6.707 18.795,3.86Z" style="fill:#ab3400;fill-rule:nonzero;"/><path d="M495.589,202.411c0,0 23.959,20.537 43.064,19.765c19.102,-0.771 21.603,-5.364 23.244,-10.456c1.641,-5.093 -9.247,-12.075 -20.168,-14.17c-10.92,-2.095 -30.389,-1.886 -33.383,-4.645c-2.994,-2.759 -18.357,-23.492 -19.651,-27.1l-9.263,3.942l16.157,32.664Z" style="fill:#fd7b2a;fill-rule:nonzero;"/><path d="M545.841,166.602c0,0 -3.242,1.604 -6.001,5.697c-2.759,4.095 -5.724,6.292 -5.724,6.292l1.298,2.092c0,0 -1.951,4.131 -1.67,7.37c0.624,7.142 10.662,6.394 16.16,2.25c1.494,-1.128 6.126,-2.54 7.639,-5.08c4.056,-6.812 2.863,-17.288 -11.702,-18.621Z" style="fill:#fc7575;fill-rule:nonzero;"/><path d="M551.251,181.874c0,0 -3.674,-6.802 -1.938,-11.585c0,0 -4.018,-0.078 -7.244,-1.899c-5.815,-3.288 1.252,-15.523 9.989,-6.802c0,0 -0.752,-5.916 5.436,-4.86c6.188,1.056 8.45,3.523 7.332,9.4c-1.115,5.878 19.013,29.559 20.896,32.991c1.883,3.432 -16.647,9.649 -21.289,10.104c-4.641,0.454 -13.597,-19.717 -13.597,-19.717c0,0 6.625,-3.713 4.765,-6.521c-1.853,-2.811 -4.35,-1.111 -4.35,-1.111Z" style="fill:#320063;fill-rule:nonzero;"/><path d="M407.995,248.804c1.235,-0.987 11.574,5.439 17.513,9.277c0.014,-0.082 0.023,-0.16 0.036,-0.239c-5.589,-4.145 -15.372,-9.093 -13.133,-10.518c1.147,-0.729 25.705,9.165 25.708,9.168c2.585,1.17 2.703,1.281 5.374,2.461c-0.635,-1.539 -7.057,-12.002 -2.723,-11.489l14.343,18.756c2.432,3.987 2.347,6.406 1.742,8.488c-0.745,2.56 -4.341,9.427 -10.202,10.807c-5.645,1.327 -20.948,-7.316 -23.344,-9.551c-2.573,-2.213 -20.119,-17.553 -17.318,-21.825c0,0 14.627,14.281 16.18,12.509c0.092,-0.409 -14.464,-10.074 -15.605,-13.849c-0.817,-2.704 11.912,5.537 17.488,9.668c-4.998,-4.105 -16.912,-12.983 -16.059,-13.663Z" style="fill:#fc7575;fill-rule:nonzero;"/><path d="M141.53,423.103l-45.036,0c-9.842,0 -17.821,-7.979 -17.821,-17.821l0,-114.423c0,-9.842 7.979,-17.824 17.821,-17.824l45.036,0c9.842,0 17.821,7.979 17.821,17.824l0,114.423c0.003,9.842 -7.976,17.821 -17.821,17.821Z" style="fill:#2c46e6;fill-rule:nonzero;"/><path d="M141.53,273.035l-2.291,0c9.841,0 17.82,7.979 17.82,17.824l0,114.423c0,9.842 -7.979,17.821 -17.82,17.821l2.291,0c9.842,0 17.821,-7.979 17.821,-17.821l0,-114.423c0.003,-9.845 -7.976,-17.824 -17.821,-17.824Z" style="fill:#2134ad;fill-rule:nonzero;"/><path d="M96.494,420.813c-8.564,0 -15.533,-6.969 -15.533,-15.533l0,-114.423c0,-8.564 6.969,-15.533 15.533,-15.533l45.036,0c8.564,0 15.533,6.969 15.533,15.533l0,114.423c0,8.564 -6.969,15.533 -15.533,15.533l-45.036,0Z" style="fill:#cbd4ff;fill-rule:nonzero;"/><path d="M127.246,283.306l-15.164,0c-0.46,0 -0.836,-0.376 -0.836,-0.836c0,-0.461 0.376,-0.837 0.836,-0.837l15.164,0c0.461,0 0.837,0.376 0.837,0.837c0,0.46 -0.376,0.836 -0.837,0.836Z" style="fill:#8088c2;fill-rule:nonzero;"/><path d="M128.785,288.872l-18.242,0c-0.507,0 -0.919,-0.412 -0.919,-0.918c0,-0.507 0.412,-0.919 0.919,-0.919l18.242,0c0.507,0 0.919,0.412 0.919,0.919c0,0.506 -0.412,0.918 -0.919,0.918Z" style="fill:#8088c2;fill-rule:nonzero;"/><path d="M105.476,287.954c0,0.696 -0.565,1.258 -1.258,1.258c-0.693,0 -1.258,-0.565 -1.258,-1.258c0,-0.696 0.565,-1.259 1.258,-1.259c0.693,0 1.258,0.566 1.258,1.259Z" style="fill:#8088c2;fill-rule:nonzero;"/><path d="M119.012,417.898c3.795,0 6.871,-3.076 6.871,-6.871c0,-3.795 -3.076,-6.871 -6.871,-6.871c-3.795,0 -6.871,3.076 -6.871,6.871c0,3.795 3.076,6.871 6.871,6.871Z" style="fill:#727586;fill-rule:nonzero;"/><path d="M117.881,417.898c3.795,0 6.871,-3.076 6.871,-6.871c0,-3.795 -3.076,-6.871 -6.871,-6.871c-3.795,0 -6.871,3.076 -6.871,6.871c0,3.795 3.076,6.871 6.871,6.871Z" style="fill:#dfe5ff;fill-rule:nonzero;"/><path d="M148.888,400.204l-60.026,0c-2.02,0 -3.658,-1.637 -3.658,-3.657l0,-92.589c0,-2.02 1.638,-3.657 3.658,-3.657l60.026,0c2.02,0 3.657,1.637 3.657,3.657l0,92.589c0,2.023 -1.637,3.657 -3.657,3.657Z" style="fill:#676e9c;fill-rule:nonzero;"/><path d="M86.734,396.411l0,-92.314c0,-1.104 0.895,-2.003 2.004,-2.003l60.277,0c1.105,0 2.004,0.895 2.004,2.003l0,92.314c0,1.108 -0.896,2.004 -2.004,2.004l-60.277,0c-1.109,0 -2.004,-0.899 -2.004,-2.004Z" style="fill:#fff;fill-rule:nonzero;"/><path d="M149.169,302.094l-60.585,0c-1.02,0 -1.85,0.974 -1.85,2.17l0,13.944l64.285,0l0,-13.944c-0.003,-1.196 -0.83,-2.17 -1.85,-2.17Z" style="fill:#badcff;fill-rule:nonzero;"/><rect x="101.747" y="321.17" width="36.544" height="2.458" style="fill:#6b9ece;fill-rule:nonzero;"/><path d="M93.134,322.4l3.455,2.337l0,-4.675l-3.455,2.338Z" style="fill:#6b9ece;fill-rule:nonzero;"/><path d="M144.38,322.4l-3.452,2.337l0,-4.675l3.452,2.338Z" style="fill:#6b9ece;fill-rule:nonzero;"/><path d="M107.565,313.731l-15.873,0c-1.644,0 -2.977,-1.333 -2.977,-2.974l0,-1.566c0,-1.644 1.333,-2.974 2.978,-2.974l15.872,0c1.644,0 2.978,1.333 2.978,2.974l0,1.566c0,1.644 -1.334,2.974 -2.978,2.974Z" style="fill:#00b3bf;fill-rule:nonzero;"/><path d="M146.312,313.73l-3.864,0c-0.843,0 -1.529,-0.683 -1.529,-1.53l0,-4.461c0,-0.844 0.683,-1.53 1.529,-1.53l3.864,0c0.843,0 1.53,0.683 1.53,1.53l0,4.461c0,0.847 -0.684,1.53 -1.53,1.53Z" style="fill:#6b9ece;fill-rule:nonzero;"/><rect x="143.828" y="307.441" width="1.108" height="4.877" style="fill:#fff;fill-rule:nonzero;"/><rect x="142.3" y="309.232" width="4.161" height="1.297" style="fill:#fff;fill-rule:nonzero;"/><rect x="89.941" y="333.549" width="7.109" height="61.483" style="fill:#6b9ece;fill-opacity:0.18;fill-rule:nonzero;"/><rect x="98.472" y="333.549" width="7.109" height="61.483" style="fill:#6b9ece;fill-opacity:0.18;fill-rule:nonzero;"/><rect x="107.072" y="333.549" width="7.109" height="61.483" style="fill:#6b9ece;fill-opacity:0.18;fill-rule:nonzero;"/><rect x="115.668" y="333.549" width="7.11" height="61.483" style="fill:#6b9ece;fill-opacity:0.18;fill-rule:nonzero;"/><rect x="124.268" y="333.549" width="7.109" height="61.483" style="fill:#6b9ece;fill-opacity:0.18;fill-rule:nonzero;"/><rect x="132.865" y="333.549" width="7.109" height="61.483" style="fill:#6b9ece;fill-opacity:0.18;fill-rule:nonzero;"/><rect x="141.464" y="333.549" width="7.11" height="61.483" style="fill:#6b9ece;fill-opacity:0.18;fill-rule:nonzero;"/><rect x="89.941" y="326.498" width="7.109" height="4.671" style="fill:#6b9ece;fill-rule:nonzero;"/><rect x="98.472" y="326.498" width="7.109" height="4.671" style="fill:#6b9ece;fill-rule:nonzero;"/><rect x="107.072" y="326.498" width="7.109" height="4.671" style="fill:#6b9ece;fill-rule:nonzero;"/><rect x="115.668" y="326.498" width="7.11" height="4.671" style="fill:#6b9ece;fill-rule:nonzero;"/><rect x="124.268" y="326.498" width="7.109" height="4.671" style="fill:#6b9ece;fill-rule:nonzero;"/><rect x="132.865" y="326.498" width="7.109" height="4.671" style="fill:#fd6100;fill-rule:nonzero;"/><rect x="141.464" y="326.498" width="7.11" height="4.671" style="fill:#fd6100;fill-rule:nonzero;"/><rect x="88.718" y="340.635" width="60.578" height="1.526" style="fill:#fff;fill-rule:nonzero;"/><rect x="88.718" y="349.811" width="60.578" height="1.526" style="fill:#fff;fill-rule:nonzero;"/><rect x="88.718" y="358.984" width="60.578" height="1.527" style="fill:#fff;fill-rule:nonzero;"/><rect x="88.718" y="368.16" width="60.578" height="1.527" style="fill:#fff;fill-rule:nonzero;"/><rect x="88.718" y="377.336" width="60.578" height="1.526" style="fill:#fff;fill-rule:nonzero;"/><rect x="88.587" y="386.512" width="60.578" height="1.526" style="fill:#fff;fill-rule:nonzero;"/><path d="M118.064,351.899l-5.834,-2.51c0.209,0.255 7.511,9.194 7.308,8.946c1.471,-3.305 4.73,-10.61 6.24,-14.003l-7.714,7.567Z" style="fill:#ff1f20;fill-rule:nonzero;"/><defs><linearGradient id="_Linear1" x1="0" y1="0" x2="1" y2="0" gradientUnits="userSpaceOnUse" gradientTransform="matrix(-17.236,-265.246,265.246,-17.236,330.895,382.811)"><stop offset="0" style="stop-color:#0082c1;stop-opacity:1"/><stop offset="1" style="stop-color:#8ddcff;stop-opacity:1"/></linearGradient><linearGradient id="_Linear2" x1="0" y1="0" x2="1" y2="0" gradientUnits="userSpaceOnUse" gradientTransform="matrix(-10.492,-161.471,161.471,-10.492,326.412,369.6)"><stop offset="0" style="stop-color:#0082c1;stop-opacity:0.32"/><stop offset="1" style="stop-color:#8ddcff;stop-opacity:0.32"/></linearGradient><linearGradient id="_Linear3" x1="0" y1="0" x2="1" y2="0" gradientUnits="userSpaceOnUse" gradientTransform="matrix(3.83,-181.309,181.309,3.83,346.997,337.484)"><stop offset="0" style="stop-color:#6ea7e8;stop-opacity:1"/><stop offset="1" style="stop-color:#9ad2ff;stop-opacity:1"/></linearGradient></defs></svg>