<svg width="599" height="424" viewBox="0 0 599 424" fill="none" xmlns="http://www.w3.org/2000/svg">
<path opacity="0.5" d="M120.065 416.713C120.065 416.713 80.6052 381.928 28.3163 266.469C-23.9725 151.01 -4.06962 15.0596 89.9013 1.98823C183.872 -11.0832 256.842 44.5757 256.842 44.5757C256.842 44.5757 361.655 11.0915 445.317 33.9918C528.978 56.892 520.744 169.109 520.744 169.109C520.744 169.109 573.501 200.269 595.031 271.065C616.562 341.861 542.494 416.413 542.494 416.413L120.065 416.713Z" fill="white"/>
<path d="M581.064 423.375H89.545C86.8255 423.375 84.6224 421.172 84.6224 418.452V418.315C84.6224 415.596 86.8255 413.393 89.545 413.393H581.064C583.784 413.393 585.987 415.596 585.987 418.315V418.452C585.987 421.172 583.784 423.375 581.064 423.375Z" fill="#2D6FB3"/>
<path d="M482.478 351.196H146.675C140.857 351.196 136.14 346.797 136.14 341.371L129.753 111.475C129.753 106.049 134.47 101.646 140.288 101.646H492.062C497.88 101.646 502.597 106.046 502.597 111.475L493.013 341.371C493.013 346.797 488.296 351.196 482.478 351.196Z" fill="#EAE9F3"/>
<path d="M498.504 103.699C499.622 105.258 500.276 107.135 500.276 109.155L490.692 339.05C490.692 344.476 485.976 348.875 480.157 348.875H144.354C141.929 348.875 139.693 348.111 137.912 346.823C139.801 349.46 143.02 351.196 146.675 351.196H482.478C488.296 351.196 493.013 346.797 493.013 341.367L502.597 111.472C502.597 108.311 500.992 105.497 498.504 103.699Z" fill="#676E9C"/>
<path d="M150.744 324.285L144.357 118.212C144.357 112.786 149.074 108.383 154.892 108.383H481.131C486.95 108.383 491.666 112.782 491.666 118.212L482.082 324.285C482.082 329.711 477.366 334.11 471.548 334.11H161.279C155.461 334.11 150.744 329.711 150.744 324.285Z" fill="#6CBDE1"/>
<path d="M150.267 329.338L143.877 123.265C143.877 117.839 148.594 113.439 154.412 113.439H480.651C486.469 113.439 491.186 117.839 491.186 123.265L481.602 329.338C481.602 334.764 476.885 339.164 471.067 339.164H160.799C154.981 339.164 150.267 334.764 150.267 329.338Z" fill="url(#paint0_linear)"/>
<path opacity="0.32" d="M425.342 236.312C385.761 305.928 316.812 275.226 223.021 260.876C191.514 256.055 167.199 266.306 148.799 282.044L150.264 329.339C150.264 334.765 154.98 339.164 160.799 339.164H471.067C476.885 339.164 481.602 334.765 481.602 329.339L488.169 188.109C459.221 201.903 435.749 218.008 425.342 236.312Z" fill="url(#paint1_linear)"/>
<path d="M469.259 326.717H463.382C463.206 326.717 463.062 326.573 463.062 326.397C463.062 326.22 463.206 326.076 463.382 326.076H468.652L468.733 324.295C468.74 324.118 468.897 323.968 469.067 323.991C469.243 323.997 469.38 324.148 469.371 324.324L469.259 326.717ZM455.721 326.717H448.059C447.882 326.717 447.739 326.573 447.739 326.397C447.739 326.22 447.882 326.076 448.059 326.076H455.721C455.897 326.076 456.041 326.22 456.041 326.397C456.041 326.573 455.897 326.717 455.721 326.717ZM440.4 326.717H432.739C432.562 326.717 432.418 326.573 432.418 326.397C432.418 326.22 432.562 326.076 432.739 326.076H440.4C440.577 326.076 440.721 326.22 440.721 326.397C440.717 326.573 440.577 326.717 440.4 326.717ZM425.077 326.717H417.415C417.239 326.717 417.095 326.573 417.095 326.397C417.095 326.22 417.239 326.076 417.415 326.076H425.077C425.253 326.076 425.397 326.22 425.397 326.397C425.397 326.573 425.253 326.717 425.077 326.717ZM409.757 326.717H402.095C401.918 326.717 401.775 326.573 401.775 326.397C401.775 326.22 401.918 326.076 402.095 326.076H409.757C409.933 326.076 410.077 326.22 410.077 326.397C410.074 326.573 409.933 326.717 409.757 326.717ZM394.433 326.717H386.771C386.595 326.717 386.451 326.573 386.451 326.397C386.451 326.22 386.595 326.076 386.771 326.076H394.433C394.61 326.076 394.753 326.22 394.753 326.397C394.753 326.573 394.61 326.717 394.433 326.717ZM379.113 326.717H371.451C371.275 326.717 371.131 326.573 371.131 326.397C371.131 326.22 371.275 326.076 371.451 326.076H379.113C379.289 326.076 379.433 326.22 379.433 326.397C379.43 326.573 379.289 326.717 379.113 326.717ZM363.789 326.717H356.128C355.951 326.717 355.807 326.573 355.807 326.397C355.807 326.22 355.951 326.076 356.128 326.076H363.789C363.966 326.076 364.11 326.22 364.11 326.397C364.11 326.573 363.966 326.717 363.789 326.717ZM348.469 326.717H340.807C340.631 326.717 340.487 326.573 340.487 326.397C340.487 326.22 340.631 326.076 340.807 326.076H348.469C348.646 326.076 348.789 326.22 348.789 326.397C348.786 326.573 348.646 326.717 348.469 326.717ZM333.146 326.717H325.484C325.307 326.717 325.164 326.573 325.164 326.397C325.164 326.22 325.307 326.076 325.484 326.076H333.146C333.322 326.076 333.466 326.22 333.466 326.397C333.466 326.573 333.322 326.717 333.146 326.717ZM317.825 326.717H310.164C309.987 326.717 309.843 326.573 309.843 326.397C309.843 326.22 309.987 326.076 310.164 326.076H317.825C318.002 326.076 318.146 326.22 318.146 326.397C318.142 326.573 318.002 326.717 317.825 326.717ZM302.502 326.717H294.84C294.664 326.717 294.52 326.573 294.52 326.397C294.52 326.22 294.664 326.076 294.84 326.076H302.502C302.678 326.076 302.822 326.22 302.822 326.397C302.822 326.573 302.678 326.717 302.502 326.717ZM287.182 326.717H279.52C279.343 326.717 279.2 326.573 279.2 326.397C279.2 326.22 279.343 326.076 279.52 326.076H287.182C287.358 326.076 287.502 326.22 287.502 326.397C287.499 326.573 287.358 326.717 287.182 326.717ZM271.858 326.717H264.196C264.02 326.717 263.876 326.573 263.876 326.397C263.876 326.22 264.02 326.076 264.196 326.076H271.858C272.035 326.076 272.178 326.22 272.178 326.397C272.178 326.573 272.035 326.717 271.858 326.717ZM256.538 326.717H248.876C248.7 326.717 248.556 326.573 248.556 326.397C248.556 326.22 248.7 326.076 248.876 326.076H256.538C256.714 326.076 256.858 326.22 256.858 326.397C256.855 326.573 256.714 326.717 256.538 326.717ZM241.214 326.717H233.553C233.376 326.717 233.232 326.573 233.232 326.397C233.232 326.22 233.376 326.076 233.553 326.076H241.214C241.391 326.076 241.535 326.22 241.535 326.397C241.535 326.573 241.391 326.717 241.214 326.717ZM225.894 326.717H218.232C218.056 326.717 217.912 326.573 217.912 326.397C217.912 326.22 218.056 326.076 218.232 326.076H225.894C226.071 326.076 226.214 326.22 226.214 326.397C226.211 326.573 226.071 326.717 225.894 326.717ZM210.571 326.717H202.909C202.732 326.717 202.589 326.573 202.589 326.397C202.589 326.22 202.732 326.076 202.909 326.076H210.571C210.747 326.076 210.891 326.22 210.891 326.397C210.891 326.573 210.747 326.717 210.571 326.717ZM195.25 326.717H187.589C187.412 326.717 187.268 326.573 187.268 326.397C187.268 326.22 187.412 326.076 187.589 326.076H195.25C195.427 326.076 195.571 326.22 195.571 326.397C195.567 326.573 195.427 326.717 195.25 326.717ZM179.927 326.717H172.265C172.089 326.717 171.945 326.573 171.945 326.397C171.945 326.22 172.089 326.076 172.265 326.076H179.927C180.103 326.076 180.247 326.22 180.247 326.397C180.247 326.573 180.103 326.717 179.927 326.717ZM164.607 326.717H162.639L162.394 318.751C162.387 318.575 162.528 318.428 162.704 318.421C162.884 318.428 163.028 318.555 163.034 318.732L163.263 326.079H164.61C164.786 326.079 164.93 326.223 164.93 326.4C164.924 326.573 164.783 326.717 164.607 326.717ZM469.41 316.98C469.403 316.98 469.4 316.98 469.393 316.98C469.217 316.973 469.08 316.823 469.09 316.646L469.446 308.994C469.456 308.818 469.616 308.667 469.779 308.69C469.956 308.697 470.093 308.847 470.083 309.024L469.727 316.676C469.72 316.846 469.58 316.98 469.41 316.98ZM162.475 311.403C162.306 311.403 162.162 311.266 162.155 311.093L161.92 303.434C161.913 303.258 162.054 303.111 162.227 303.104C162.41 303.107 162.551 303.238 162.557 303.415L162.796 311.073C162.802 311.25 162.662 311.397 162.485 311.403C162.482 311.403 162.479 311.403 162.475 311.403ZM470.119 301.672C470.113 301.672 470.109 301.672 470.103 301.672C469.926 301.666 469.789 301.515 469.799 301.339L470.155 293.687C470.162 293.511 470.312 293.367 470.489 293.383C470.665 293.393 470.802 293.54 470.792 293.716L470.436 301.368C470.433 301.542 470.289 301.672 470.119 301.672ZM161.998 296.086C161.825 296.086 161.684 295.949 161.678 295.776L161.439 288.117C161.433 287.941 161.573 287.794 161.75 287.787C161.926 287.787 162.073 287.921 162.08 288.098L162.319 295.756C162.325 295.933 162.185 296.08 162.008 296.086C162.005 296.086 162.002 296.086 161.998 296.086ZM470.832 286.368C470.828 286.368 470.822 286.368 470.819 286.368C470.642 286.359 470.505 286.212 470.515 286.035L470.871 278.383C470.877 278.207 471.034 278.06 471.204 278.079C471.381 278.086 471.518 278.236 471.508 278.413L471.152 286.064C471.142 286.234 471.002 286.368 470.832 286.368ZM161.524 280.773C161.354 280.773 161.211 280.635 161.204 280.462L160.965 272.803C160.959 272.627 161.099 272.48 161.276 272.473C161.452 272.483 161.599 272.607 161.606 272.784L161.845 280.442C161.851 280.619 161.711 280.766 161.534 280.773C161.531 280.773 161.528 280.773 161.524 280.773ZM471.544 271.065C471.538 271.065 471.534 271.065 471.528 271.065C471.351 271.058 471.214 270.908 471.224 270.731L471.58 263.079C471.587 262.903 471.731 262.756 471.914 262.775C472.09 262.782 472.227 262.932 472.218 263.109L471.861 270.761C471.855 270.931 471.714 271.065 471.544 271.065ZM161.05 265.459C160.88 265.459 160.737 265.322 160.733 265.148L160.495 257.49C160.488 257.313 160.629 257.166 160.802 257.16C160.992 257.15 161.126 257.294 161.132 257.47L161.371 265.129C161.377 265.305 161.237 265.452 161.06 265.459C161.057 265.459 161.054 265.459 161.05 265.459ZM472.257 255.757C472.25 255.757 472.247 255.757 472.241 255.757C472.064 255.751 471.927 255.6 471.937 255.424L472.293 247.772C472.299 247.596 472.453 247.445 472.626 247.468C472.803 247.478 472.94 247.625 472.93 247.801L472.574 255.453C472.567 255.623 472.424 255.757 472.257 255.757ZM160.576 250.145C160.403 250.145 160.263 250.008 160.256 249.835L160.017 242.176C160.011 242 160.151 241.853 160.328 241.846C160.518 241.843 160.652 241.98 160.658 242.156L160.897 249.815C160.903 249.991 160.763 250.139 160.586 250.145C160.583 250.145 160.58 250.145 160.576 250.145ZM472.966 240.454C472.96 240.454 472.956 240.454 472.95 240.454C472.773 240.447 472.636 240.297 472.646 240.12L473.002 232.468C473.009 232.292 473.169 232.141 473.336 232.164C473.512 232.171 473.649 232.321 473.64 232.498L473.283 240.15C473.28 240.319 473.136 240.454 472.966 240.454ZM160.099 234.828C159.929 234.828 159.785 234.691 159.779 234.518L159.543 226.859C159.537 226.683 159.678 226.535 159.854 226.529C160.05 226.526 160.178 226.663 160.184 226.84L160.419 234.498C160.426 234.674 160.285 234.822 160.112 234.828C160.106 234.828 160.102 234.828 160.099 234.828ZM473.679 225.146C473.675 225.146 473.669 225.146 473.666 225.146C473.489 225.14 473.352 224.989 473.362 224.813L473.718 217.161C473.724 216.984 473.872 216.844 474.051 216.857C474.228 216.864 474.365 217.014 474.355 217.19L473.999 224.842C473.989 225.012 473.849 225.146 473.679 225.146ZM159.625 219.514C159.452 219.514 159.311 219.377 159.308 219.204L159.07 211.545C159.063 211.369 159.204 211.222 159.38 211.215C159.563 211.215 159.704 211.349 159.71 211.526L159.949 219.184C159.955 219.361 159.815 219.508 159.638 219.514C159.632 219.514 159.628 219.514 159.625 219.514ZM474.391 209.842C474.385 209.842 474.382 209.842 474.375 209.842C474.198 209.836 474.061 209.686 474.071 209.509L474.427 201.857C474.437 201.681 474.61 201.547 474.761 201.553C474.937 201.56 475.074 201.71 475.065 201.886L474.708 209.538C474.702 209.708 474.561 209.842 474.391 209.842ZM159.151 204.201C158.981 204.201 158.837 204.063 158.831 203.89L158.592 196.232C158.586 196.055 158.726 195.908 158.903 195.902C159.083 195.882 159.226 196.036 159.233 196.209L159.472 203.867C159.478 204.044 159.338 204.191 159.164 204.197C159.158 204.201 159.155 204.201 159.151 204.201ZM475.104 194.535C475.097 194.535 475.094 194.535 475.088 194.535C474.911 194.529 474.774 194.378 474.784 194.202L475.14 186.55C475.15 186.373 475.29 186.239 475.473 186.246C475.65 186.252 475.787 186.403 475.777 186.579L475.421 194.231C475.414 194.405 475.271 194.535 475.104 194.535ZM158.677 188.887C158.504 188.887 158.364 188.75 158.36 188.576L158.122 180.918C158.115 180.742 158.256 180.594 158.432 180.588C158.609 180.591 158.756 180.722 158.762 180.898L159.001 188.557C159.007 188.733 158.867 188.88 158.69 188.887C158.684 188.887 158.681 188.887 158.677 188.887ZM475.813 179.231C475.807 179.231 475.803 179.231 475.797 179.231C475.62 179.225 475.483 179.074 475.493 178.898L475.849 171.246C475.856 171.07 476.006 170.932 476.183 170.942C476.359 170.949 476.496 171.099 476.487 171.275L476.13 178.927C476.124 179.097 475.983 179.231 475.813 179.231ZM158.2 173.57C158.03 173.57 157.886 173.433 157.88 173.26L157.641 165.601C157.635 165.425 157.775 165.277 157.952 165.271C158.125 165.268 158.275 165.405 158.282 165.578L158.52 173.237C158.527 173.413 158.386 173.56 158.21 173.567C158.207 173.57 158.203 173.57 158.2 173.57ZM476.526 163.924C476.522 163.924 476.516 163.924 476.513 163.924C476.336 163.914 476.199 163.767 476.209 163.591L476.565 155.939C476.572 155.762 476.732 155.622 476.898 155.635C477.075 155.641 477.212 155.792 477.202 155.968L476.846 163.62C476.836 163.793 476.696 163.924 476.526 163.924ZM157.726 158.256C157.556 158.256 157.412 158.119 157.409 157.946L157.17 150.287C157.164 150.111 157.304 149.964 157.478 149.957C157.671 149.951 157.801 150.091 157.808 150.268L158.043 157.926C158.05 158.103 157.909 158.25 157.736 158.256C157.733 158.256 157.729 158.256 157.726 158.256ZM477.238 148.62C477.232 148.62 477.229 148.62 477.222 148.62C477.045 148.614 476.908 148.463 476.918 148.287L477.274 140.635C477.281 140.458 477.428 140.318 477.608 140.331C477.784 140.337 477.921 140.488 477.912 140.664L477.555 148.316C477.549 148.486 477.408 148.62 477.238 148.62ZM157.252 142.943C157.082 142.943 156.938 142.805 156.932 142.632L156.693 134.974C156.687 134.797 156.827 134.65 157.004 134.643C157.174 134.627 157.327 134.777 157.334 134.954L157.572 142.613C157.579 142.789 157.438 142.936 157.262 142.943C157.259 142.943 157.255 142.943 157.252 142.943ZM477.951 133.316C477.944 133.316 477.941 133.316 477.935 133.316C477.758 133.31 477.621 133.16 477.631 132.983L477.931 126.527H477.402C477.225 126.527 477.081 126.384 477.081 126.207C477.081 126.031 477.225 125.887 477.402 125.887H478.601L478.271 133.009C478.261 133.182 478.118 133.316 477.951 133.316ZM156.778 127.629C156.605 127.629 156.464 127.492 156.458 127.318L156.412 125.887H163.299C163.476 125.887 163.62 126.031 163.62 126.207C163.62 126.384 163.476 126.527 163.299 126.527H157.069L157.092 127.299C157.099 127.475 156.958 127.622 156.781 127.629C156.785 127.629 156.781 127.629 156.778 127.629ZM469.74 126.527H462.078C461.902 126.527 461.758 126.384 461.758 126.207C461.758 126.031 461.902 125.887 462.078 125.887H469.74C469.917 125.887 470.06 126.031 470.06 126.207C470.057 126.384 469.917 126.527 469.74 126.527ZM454.416 126.527H446.755C446.578 126.527 446.434 126.384 446.434 126.207C446.434 126.031 446.578 125.887 446.755 125.887H454.416C454.593 125.887 454.737 126.031 454.737 126.207C454.737 126.384 454.593 126.527 454.416 126.527ZM439.096 126.527H431.434C431.258 126.527 431.114 126.384 431.114 126.207C431.114 126.031 431.258 125.887 431.434 125.887H439.096C439.273 125.887 439.417 126.031 439.417 126.207C439.413 126.384 439.273 126.527 439.096 126.527ZM423.773 126.527H416.111C415.934 126.527 415.791 126.384 415.791 126.207C415.791 126.031 415.934 125.887 416.111 125.887H423.773C423.949 125.887 424.093 126.031 424.093 126.207C424.093 126.384 423.949 126.527 423.773 126.527ZM408.452 126.527H400.791C400.614 126.527 400.47 126.384 400.47 126.207C400.47 126.031 400.614 125.887 400.791 125.887H408.452C408.629 125.887 408.773 126.031 408.773 126.207C408.77 126.384 408.629 126.527 408.452 126.527ZM393.129 126.527H385.467C385.291 126.527 385.147 126.384 385.147 126.207C385.147 126.031 385.291 125.887 385.467 125.887H393.129C393.305 125.887 393.449 126.031 393.449 126.207C393.449 126.384 393.305 126.527 393.129 126.527ZM377.809 126.527H370.147C369.97 126.527 369.827 126.384 369.827 126.207C369.827 126.031 369.97 125.887 370.147 125.887H377.809C377.985 125.887 378.129 126.031 378.129 126.207C378.126 126.384 377.985 126.527 377.809 126.527ZM362.485 126.527H354.823C354.647 126.527 354.503 126.384 354.503 126.207C354.503 126.031 354.647 125.887 354.823 125.887H362.485C362.662 125.887 362.806 126.031 362.806 126.207C362.806 126.384 362.662 126.527 362.485 126.527ZM347.165 126.527H339.503C339.327 126.527 339.183 126.384 339.183 126.207C339.183 126.031 339.327 125.887 339.503 125.887H347.165C347.341 125.887 347.485 126.031 347.485 126.207C347.482 126.384 347.341 126.527 347.165 126.527ZM331.841 126.527H324.18C324.003 126.527 323.859 126.384 323.859 126.207C323.859 126.031 324.003 125.887 324.18 125.887H331.841C332.018 125.887 332.162 126.031 332.162 126.207C332.162 126.384 332.018 126.527 331.841 126.527ZM316.521 126.527H308.859C308.683 126.527 308.539 126.384 308.539 126.207C308.539 126.031 308.683 125.887 308.859 125.887H316.521C316.698 125.887 316.842 126.031 316.842 126.207C316.838 126.384 316.698 126.527 316.521 126.527ZM301.198 126.527H293.536C293.359 126.527 293.216 126.384 293.216 126.207C293.216 126.031 293.359 125.887 293.536 125.887H301.198C301.374 125.887 301.518 126.031 301.518 126.207C301.518 126.384 301.374 126.527 301.198 126.527ZM285.877 126.527H278.216C278.039 126.527 277.895 126.384 277.895 126.207C277.895 126.031 278.039 125.887 278.216 125.887H285.877C286.054 125.887 286.198 126.031 286.198 126.207C286.195 126.384 286.054 126.527 285.877 126.527ZM270.554 126.527H262.892C262.716 126.527 262.572 126.384 262.572 126.207C262.572 126.031 262.716 125.887 262.892 125.887H270.554C270.73 125.887 270.874 126.031 270.874 126.207C270.874 126.384 270.73 126.527 270.554 126.527ZM255.234 126.527H247.572C247.395 126.527 247.252 126.384 247.252 126.207C247.252 126.031 247.395 125.887 247.572 125.887H255.234C255.41 125.887 255.554 126.031 255.554 126.207C255.551 126.384 255.41 126.527 255.234 126.527ZM239.91 126.527H232.248C232.072 126.527 231.928 126.384 231.928 126.207C231.928 126.031 232.072 125.887 232.248 125.887H239.91C240.087 125.887 240.231 126.031 240.231 126.207C240.231 126.384 240.087 126.527 239.91 126.527ZM224.59 126.527H216.928C216.752 126.527 216.608 126.384 216.608 126.207C216.608 126.031 216.752 125.887 216.928 125.887H224.59C224.766 125.887 224.91 126.031 224.91 126.207C224.907 126.384 224.766 126.527 224.59 126.527ZM209.266 126.527H201.605C201.428 126.527 201.284 126.384 201.284 126.207C201.284 126.031 201.428 125.887 201.605 125.887H209.266C209.443 125.887 209.587 126.031 209.587 126.207C209.587 126.384 209.443 126.527 209.266 126.527ZM193.946 126.527H186.284C186.108 126.527 185.964 126.384 185.964 126.207C185.964 126.031 186.108 125.887 186.284 125.887H193.946C194.123 125.887 194.267 126.031 194.267 126.207C194.263 126.384 194.123 126.527 193.946 126.527ZM178.623 126.527H170.961C170.784 126.527 170.641 126.384 170.641 126.207C170.641 126.031 170.784 125.887 170.961 125.887H178.623C178.799 125.887 178.943 126.031 178.943 126.207C178.943 126.384 178.799 126.527 178.623 126.527Z" fill="#AFD6FF"/>
<path d="M307.235 158.076C307.235 158.076 311.772 204.04 309.824 219.684L298.616 338.428H395.335C395.335 338.428 389.909 237.24 389.909 229.579C389.909 221.917 388.314 158.076 388.314 158.076L373.151 150.415L335.006 149.938L307.235 158.076Z" fill="url(#paint2_linear)"/>
<path d="M333.41 150.656L314.321 156.001C314.321 156.001 321.964 194.162 326.523 198.722C331.083 203.282 325.749 206.701 329.58 210.532C333.41 214.363 354.637 243.143 354.637 243.143L333.41 150.656Z" fill="#87A2C2"/>
<path d="M374.109 151.906L354.637 243.145C354.637 243.145 375.341 206.558 377.109 204.787C378.881 203.015 377.109 195.53 377.109 192.019C377.109 188.509 388.121 157.979 388.121 157.979C388.121 157.979 378.07 151.906 374.109 151.906Z" fill="#87A2C2"/>
<path d="M335.006 149.938L314.576 152.013C314.576 152.013 321.964 189.586 326.523 194.149C331.083 198.709 325.749 202.128 329.58 205.959C333.411 209.79 354.637 243.147 354.637 243.147L335.006 149.938Z" fill="#BADCFF"/>
<path d="M373.151 150.416L354.637 243.145C354.637 243.145 375.341 201.982 377.109 200.211C378.881 198.439 377.109 190.954 377.109 187.443C377.109 183.933 388.311 154.884 388.311 154.884C388.311 154.884 377.113 150.416 373.151 150.416Z" fill="#BADCFF"/>
<path d="M351.924 338.428L354.637 243.146L354.078 338.428H351.924Z" fill="#7696B5"/>
<path d="M362.139 351.197H289.359V358.859H362.139V351.197Z" fill="#8088C2"/>
<path d="M355.912 394.237H295.585L293.67 358.857H357.831L355.912 394.237Z" fill="#8792CE"/>
<path opacity="0.28" d="M357.831 358.857H293.67L295.585 394.237H303.518C304.3 388.733 305.856 382.866 308.83 378.159C314.21 369.654 340.758 366.31 357.494 365.035L357.831 358.857Z" fill="#370C62"/>
<path d="M410.339 413.389H246.268C246.268 402.812 254.842 394.238 265.419 394.238H391.188C401.765 394.238 410.339 402.812 410.339 413.389Z" fill="#676E9C"/>
<path d="M233.393 162.856L227.819 142.9L203.321 149.183C203.321 149.183 206.815 160.051 209.253 161.545C211.048 162.643 216.451 165.951 219.184 167.621L241.084 211.065L256.842 191.597L233.393 162.856Z" fill="#FD5E5A"/>
<path d="M349.208 51.0977C349.208 51.0977 367.882 48.8129 375.861 52.6209C383.84 56.4289 399.483 71.8048 395.332 101.648C395.332 101.648 398.683 102.713 399.64 107.283C400.598 111.849 400.676 119.998 392.776 127.532C384.876 135.067 371.549 134.233 364.685 134.233C357.821 134.233 338.51 128.447 333.564 117.788C328.619 107.129 349.208 51.0977 349.208 51.0977Z" fill="#26004A"/>
<path d="M358.252 55.434C353.245 54.9633 349.071 57.2644 345.72 61.0397C341.484 73.5097 334.705 94.8443 333.133 108.01C333.826 113.306 335.574 118.558 338.095 122.716C338.533 123.439 338.993 124.132 339.474 124.789C346.093 129.992 355.83 133.14 361.812 133.993C380.427 131.493 385.663 114.303 385.199 95.3542C385.075 90.2485 388.723 74.353 380.823 64.0829C375.511 57.1827 366.365 54.6364 358.252 55.434Z" fill="#130025"/>
<path d="M339.634 120.729C339.634 120.729 340.592 133.656 339.634 139.563C338.676 145.469 335.006 149.938 335.006 149.938L354.637 243.147L373.151 150.418C373.151 150.418 368.555 147.601 367.244 139.566C365.934 131.532 365.966 110.838 365.966 110.838L339.634 120.729Z" fill="#FC7575"/>
<path d="M354.637 243.147L369.049 170.965C358.06 172.161 347.159 170.778 339.042 169.111L354.637 243.147Z" fill="#00158E"/>
<path d="M369.049 170.963C368.947 170.973 368.846 170.986 368.742 170.995C365.133 185.744 356.889 218.437 354.078 221.248C351.378 223.948 343.141 187.927 339.062 169.113C339.056 169.113 339.049 169.109 339.042 169.109L354.637 243.148L369.049 170.963Z" fill="#000F6B"/>
<path opacity="0.53" d="M343.779 119.172C346.596 130.158 353.431 140.474 366.44 137.052C366.597 137.009 366.748 136.964 366.905 136.918C365.944 127.733 365.97 110.834 365.97 110.834L343.779 119.172Z" fill="#FD5E5A"/>
<path d="M361.815 58.0072C361.815 58.0072 373.148 56.2519 379.371 65.3486C385.595 74.4453 382.722 89.7688 382.722 93.5997C382.722 97.4306 384.559 125.201 366.44 129.509C348.322 133.817 342.184 114.029 342.184 102.059C342.184 90.0892 346.632 59.5042 361.815 58.0072Z" fill="#FC7575"/>
<path d="M229.741 144.132C229.522 143.864 211.394 126.606 207.809 127.687C201.843 129.243 215.101 139.138 216.536 140.991C217.252 141.919 217.896 143.083 218.448 144.188C217.977 144.322 217.539 144.443 217.144 144.537C213.731 145.358 204.618 147.061 203.324 149.179C203.324 149.179 203.079 161.113 206.213 161.178C209.348 161.244 212.519 160.096 215.885 160.436C217.569 160.606 219.298 159.779 220.605 158.91C220.815 158.769 221.014 158.629 221.2 158.491C220.766 159.224 220.654 160.047 221.096 160.946C222.704 164.212 233.824 158.58 234.304 156.494C234.788 154.406 232.307 147.29 229.741 144.132ZM227.195 154.922C226.172 155.167 224.208 155.873 222.727 156.936C222.299 155.811 220.171 150.071 220.52 147.78C220.52 147.78 220.52 147.78 220.524 147.78C222.073 146.142 225.453 146.097 227.107 146.803C227.326 147.005 227.486 147.27 227.568 147.61C228.091 149.78 229.212 154.435 227.195 154.922Z" fill="#FC7575"/>
<path d="M228.391 189.041C228.391 189.041 254.247 255.434 264.141 260.543C274.035 265.652 310.304 210.425 310.304 210.425C310.304 210.425 311.703 158.08 307.235 158.08C302.767 158.08 284.393 179.934 279.108 193.078C273.731 206.45 273.921 213.206 266.697 200.213C259.316 186.939 246.346 169.109 246.346 169.109C238.9 176.555 228.391 189.041 228.391 189.041Z" fill="#BADCFF"/>
<path d="M375.861 52.7409C375.861 52.7409 369.477 51.9434 365.646 54.9767C361.815 58.01 353.356 59.445 348.41 82.9075C343.462 106.37 347.453 109.083 347.453 109.083C347.453 109.083 352.712 119.935 345.933 128.234C339.154 136.533 325.853 133.399 318.404 129.032C307.575 122.684 309.5 100.663 314.06 86.2546C314.697 84.2443 315.011 83.048 315.753 81.3679C317.185 78.1287 317.659 74.4024 319.728 70.9964C326.432 59.968 338.637 49.8907 360.22 50.4333C360.22 50.43 369.954 49.8678 375.861 52.7409Z" fill="#320063"/>
<path d="M184.608 150.736C184.372 150.736 184.137 150.667 183.928 150.523C183.382 150.147 183.245 149.402 183.621 148.856L229.104 82.9469C229.48 82.4011 230.225 82.2638 230.771 82.6397C231.317 83.0156 231.454 83.7609 231.078 84.3067L185.595 150.219C185.363 150.556 184.987 150.736 184.608 150.736Z" fill="#2C46E6"/>
<path d="M106.572 233.813C106.277 233.813 105.983 233.705 105.754 233.489C105.271 233.038 105.244 232.28 105.699 231.796L181.189 151.089C181.64 150.605 182.398 150.579 182.882 151.034C183.366 151.485 183.392 152.243 182.937 152.727L107.448 233.433C107.209 233.685 106.889 233.813 106.572 233.813Z" fill="#2C46E6"/>
<path d="M182.061 153.105C181.82 153.105 181.574 153.033 181.365 152.879L120.643 109.357C120.104 108.971 119.983 108.223 120.369 107.684C120.754 107.144 121.503 107.023 122.042 107.409L182.758 150.931C183.297 151.317 183.418 152.065 183.032 152.605C182.8 152.932 182.434 153.105 182.061 153.105Z" fill="#2C46E6"/>
<path d="M214.447 291.988C213.901 291.988 213.411 291.615 213.28 291.063L180.894 152.181C180.744 151.537 181.146 150.893 181.79 150.742C182.434 150.592 183.078 150.994 183.228 151.638L215.614 290.52C215.765 291.164 215.363 291.808 214.719 291.959C214.627 291.975 214.536 291.988 214.447 291.988Z" fill="#2C46E6"/>
<path d="M195.545 151.905C195.545 159.351 189.507 165.388 182.061 165.388C174.615 165.388 168.578 159.351 168.578 151.905C168.578 144.459 174.615 138.422 182.061 138.422C189.507 138.422 195.545 144.459 195.545 151.905Z" fill="#2C46E6"/>
<path d="M190.655 151.242C190.655 155.988 186.808 159.835 182.061 159.835C177.315 159.835 173.468 155.988 173.468 151.242C173.468 146.496 177.315 142.648 182.061 142.648C186.808 142.648 190.655 146.496 190.655 151.242Z" fill="#BADCFF"/>
<path d="M118.646 138.792H61.1599C57.7147 138.792 54.92 135.997 54.92 132.552V84.2184C54.92 80.7732 57.7147 77.9785 61.1599 77.9785H118.646C122.091 77.9785 124.886 80.7732 124.886 84.2184V132.552C124.886 136.001 122.094 138.792 118.646 138.792Z" fill="#BADCFF"/>
<path d="M121.411 78.623C121.823 79.4566 122.058 80.3947 122.058 81.3883V129.725C122.058 133.171 119.264 135.965 115.819 135.965H58.3325C57.3388 135.965 56.4007 135.733 55.5672 135.318C56.587 137.377 58.7084 138.793 61.1599 138.793H118.646C122.091 138.793 124.886 135.998 124.886 132.553V84.219C124.886 81.7642 123.47 79.6429 121.411 78.623Z" fill="#2C46E6"/>
<path d="M118.646 258.536H61.1599C57.7147 258.536 54.92 255.741 54.92 252.296V203.959C54.92 200.513 57.7147 197.719 61.1599 197.719H118.646C122.091 197.719 124.886 200.513 124.886 203.959V252.292C124.886 255.741 122.094 258.536 118.646 258.536Z" fill="#BADCFF"/>
<path d="M121.411 198.367C121.823 199.201 122.058 200.139 122.058 201.132V249.47C122.058 252.915 119.264 255.709 115.819 255.709H58.3325C57.3388 255.709 56.4007 255.477 55.5672 255.062C56.587 257.121 58.7084 258.537 61.1599 258.537H118.646C122.091 258.537 124.886 255.742 124.886 252.297V203.96C124.886 201.508 123.47 199.387 121.411 198.367Z" fill="#2C46E6"/>
<path d="M193.979 94.1612H260.477C264.157 94.1612 267.141 91.1769 267.141 87.4964V40.0125C267.141 36.332 264.157 33.3477 260.477 33.3477H193.979C190.298 33.3477 187.314 36.332 187.314 40.0125V87.4964C187.314 91.1769 190.298 94.1612 193.979 94.1612Z" fill="#BADCFF"/>
<path d="M191.279 33.9922C190.808 34.8257 190.544 35.7638 190.544 36.7575V85.0913C190.544 88.5364 193.73 91.3311 197.663 91.3311H263.255C264.389 91.3311 265.458 91.0991 266.409 90.6839C265.246 92.7432 262.827 94.1585 260.026 94.1585H194.433C190.501 94.1585 187.314 91.3638 187.314 87.9187V39.5881C187.314 37.1334 188.929 35.012 191.279 33.9922Z" fill="#2C46E6"/>
<path d="M185.591 269.842H252.092C255.773 269.842 258.757 272.826 258.757 276.507V323.991C258.757 327.671 255.773 330.655 252.092 330.655H185.591C181.911 330.655 178.927 327.671 178.927 323.991V276.507C178.927 272.826 181.911 269.842 185.591 269.842Z" fill="#BADCFF"/>
<path d="M182.892 330.012C182.421 329.179 182.156 328.24 182.156 327.247V278.913C182.156 275.468 185.343 272.673 189.275 272.673H254.868C256.002 272.673 257.071 272.905 258.022 273.32C256.858 271.261 254.439 269.846 251.638 269.846H186.046C182.114 269.846 178.927 272.64 178.927 276.086V324.423C178.927 326.871 180.541 328.992 182.892 330.012Z" fill="#2C46E6"/>
<path d="M80.2457 96.2071C80.2457 97.3478 79.3207 98.2696 78.1832 98.2696C77.0424 98.2696 76.1207 97.3446 76.1207 96.2071C76.1207 95.0663 77.0457 94.1445 78.1832 94.1445C79.324 94.1445 80.2457 95.0696 80.2457 96.2071Z" fill="#7686E6"/>
<path d="M103.398 90.409C103.398 91.1248 102.816 91.7067 102.1 91.7067C101.384 91.7067 100.802 91.1248 100.802 90.409C100.802 89.6932 101.384 89.1113 102.1 89.1113C102.816 89.1113 103.398 89.6932 103.398 90.409Z" fill="#7686E6"/>
<path d="M88.5514 127.659C78.6277 127.659 70.5574 119.585 70.5574 109.665C70.5574 105.196 72.1983 100.918 75.176 97.6228L75.6304 97.1227L75.9638 97.711C76.1632 98.064 76.4475 98.368 76.7875 98.5903L77.2582 98.9008L76.8823 99.3225C74.3523 102.163 72.9599 105.837 72.9599 109.668C72.9599 118.264 79.9548 125.259 88.5514 125.259C96.7165 125.259 103.46 118.987 104.094 110.903C101.097 110.315 98.8902 107.671 98.8902 104.572V93.1185L100.283 90.9939L100.704 91.5234C100.943 91.8241 101.276 92.0399 101.642 92.1379L102.296 92.3145L101.296 93.8377V104.575C101.296 106.808 103.113 108.625 105.346 108.625C107.578 108.625 109.396 106.808 109.396 104.575V93.8769L108.245 92.3243L108.886 92.1118C109.245 91.9941 109.566 91.7555 109.785 91.445L110.174 90.8926L111.795 93.0826V104.575C111.795 107.713 109.546 110.374 106.5 110.923C105.856 120.337 98.0469 127.659 88.5514 127.659Z" fill="#7686E6"/>
<path d="M109.621 90.409C109.621 91.1248 109.039 91.7067 108.324 91.7067C107.608 91.7067 107.026 91.1248 107.026 90.409C107.026 89.6932 107.608 89.1113 108.324 89.1113C109.039 89.1113 109.621 89.6932 109.621 90.409Z" fill="#7686E6"/>
<path d="M95.9843 106.013H91.1042V101.133H85.7175V106.013H80.8374V111.4H85.7175V116.28H91.1042V111.4H95.9843V106.013Z" fill="#7686E6"/>
<path d="M239.279 64.6614H237.72L234.491 60.2094L232.052 70.2541L230.173 52.8223L225.123 64.1809L222.91 60.1539L220.083 65.2269L216.232 60.52L214.496 69.0937L212.869 54.3553L207.328 64.3574H194.005C193.672 64.3574 193.4 64.6287 193.4 64.9654C193.4 65.2988 193.672 65.5701 194.005 65.5701H208.626L211.646 60.1147L213.954 80.9982L217.311 64.4097L220.403 68.1883L222.897 63.7102L225.309 68.0967L229.055 59.6734L231.34 80.8936L235.38 64.2626L236.547 65.8741H240.087C239.78 65.4589 239.511 65.0536 239.279 64.6614Z" fill="#7686E6"/>
<path d="M251.066 56.5092C251.066 56.5092 253.135 53.6426 257.224 53.6426C260.869 53.6426 263.383 56.5877 263.383 60.0165C263.383 63.9847 259.957 68.6817 251.069 72.7643C242.179 68.6817 238.756 63.9879 238.756 60.0165C238.756 56.5877 241.267 53.6426 244.915 53.6426C248.997 53.6426 251.066 56.5092 251.066 56.5092Z" fill="#FD6100"/>
<path opacity="0.66" d="M233.507 310.19L201.824 306.134C199.81 305.876 198.388 304.035 198.643 302.022L200.788 285.27C201.046 283.256 202.886 281.835 204.9 282.093L236.583 286.149C238.596 286.407 240.018 288.248 239.76 290.261L237.616 307.013C237.361 309.027 235.52 310.448 233.507 310.19Z" fill="white"/>
<path d="M214.176 288.533L213.313 286.585C213.061 286.019 212.502 285.656 211.888 285.656H197.267C196.404 285.656 195.708 286.356 195.708 287.219V297.146H195.734V315.859C195.734 316.722 196.434 317.418 197.293 317.418H240.423C241.286 317.418 241.983 316.718 241.983 315.859V291.023C241.983 290.16 241.283 289.461 240.423 289.461H215.608C214.987 289.461 214.424 289.095 214.176 288.533Z" fill="#7686E6"/>
<path d="M228.264 303.747C228.264 308.506 224.407 312.363 219.648 312.363C214.889 312.363 211.032 308.506 211.032 303.747C211.032 298.988 214.889 295.131 219.648 295.131C224.407 295.131 228.264 298.988 228.264 303.747Z" fill="#EAE9F3"/>
<path d="M226.362 301.398H222.037V297.07H217.262V301.398H212.937V306.174H217.262V310.498H222.037V306.174H226.362V301.398Z" fill="#FD6100"/>
<path d="M86.4987 222.97C88.8636 222.97 90.7807 221.053 90.7807 218.688C90.7807 216.323 88.8636 214.406 86.4987 214.406C84.1339 214.406 82.2168 216.323 82.2168 218.688C82.2168 221.053 84.1339 222.97 86.4987 222.97Z" fill="#00B3BF"/>
<path d="M93.0222 230.314H99.2261V224.343H93.0222V230.314Z" fill="#7686E6"/>
<path d="M93.9376 232.34H98.3078V230.663H93.9376V232.34Z" fill="#7686E6"/>
<path d="M92.3333 219.388C92.3333 218.038 91.9214 216.783 91.2187 215.74V211.622C92.2091 211.622 93.0132 210.818 93.0132 209.827V206.559H99.2335V209.827C99.2335 210.818 100.038 211.622 101.028 211.622V222.222C101.028 223.147 100.279 223.896 99.3544 223.896H92.8922C92.1895 223.896 91.588 223.461 91.3396 222.85C91.9672 221.843 92.3333 220.656 92.3333 219.388Z" fill="#7686E6"/>
<path d="M91.5219 206.555H100.723V204.355H91.5219V206.555Z" fill="#7686E6"/>
<path d="M79.2946 218.764C79.275 218.97 79.2652 219.176 79.2652 219.388C79.2652 222.519 81.4813 225.144 84.4264 225.775C83.5144 226.425 82.8019 227.308 82.3868 228.413C81.6676 230.325 82.0108 232.479 82.8836 234.28C83.9263 236.434 85.7208 238.15 87.7702 239.346L86.9956 242.076C76.2776 239.029 71.7244 227.138 79.2946 218.764Z" fill="#7686E6"/>
<path d="M82.0131 245.275H90.9823V239.258H82.0131V245.275Z" fill="#7686E6"/>
<path d="M74.5289 248.488H107.827V247.495C107.827 246.269 106.833 245.275 105.607 245.275H76.745C75.5193 245.275 74.5256 246.269 74.5256 247.495V248.488H74.5289Z" fill="#8088C2"/>
<path d="M87.608 237.424H104.739V234.413H87.608V237.424Z" fill="white"/>
<path d="M388.121 157.982C388.121 157.982 384.833 194.467 389.802 222.254C391.05 229.236 410.325 232.335 420.857 240.265C438.41 253.48 450.644 271.317 453.766 278.403C460.882 275.194 460.839 243.148 456.943 230.419C452.71 221.957 388.121 157.982 388.121 157.982Z" fill="#BADCFF"/>
<path d="M490.637 203.953L422.733 195.742L380.202 276.779H435.272L490.637 203.953Z" fill="#00158E"/>
<path opacity="0.44" d="M435.272 276.779L490.637 203.953L422.737 195.742L421.524 198.053C432.141 200.832 452.678 207.346 455.727 216.776C458.983 226.85 435.282 262.158 425.012 276.779H435.272Z" fill="#000F6B"/>
<path d="M420.236 192.055L376.959 275.331L380.201 276.779L422.733 195.742L490.637 203.953L486.499 200.713L420.236 192.055Z" fill="#0021DB"/>
<path d="M540.873 190.26L544.674 204.783L556.899 200.046L554.703 187.188L540.873 190.26Z" fill="#FC7575"/>
<path d="M486.266 157.352C485.217 155.851 478.056 146.67 476.833 147.523C475.614 148.376 480.02 154.554 480.677 155.492C480.677 155.492 478.163 155.292 476.925 158.116C476.094 160.009 481.314 169.021 483.504 172.603C485.413 172.005 488.237 169.72 488.139 167.749C488.143 164.036 487.074 158.502 486.266 157.352Z" fill="#FC7575"/>
<path opacity="0.53" d="M551.552 187.887L540.873 190.26L542.259 195.552C544.933 195.081 547.727 193.63 549.401 190.753C549.819 190.028 550.656 189.027 551.552 187.887Z" fill="#FD5E5A"/>
<path d="M537.297 407.928L535.826 416.246L529.279 416.714L530.397 402.129L537.297 407.928Z" fill="#FC7575"/>
<path d="M536.967 414.965C536.967 414.965 530.913 415.073 529.586 414.027C528.259 412.981 526.857 415.004 524.716 417.714C522.575 420.423 514.583 420.097 513.609 422.234C512.87 423.852 536.588 423.378 537.784 423.342C538.631 423.316 536.967 414.965 536.967 414.965Z" fill="#00123F"/>
<path d="M555.075 406.623L553.604 414.945L547.057 415.413L548.172 400.828L555.075 406.623Z" fill="#FC7575"/>
<path d="M554.745 413.664C554.745 413.664 548.691 413.772 547.364 412.726C546.037 411.68 544.635 413.703 542.494 416.413C540.353 419.123 532.799 419.518 531.734 421.61C530.668 423.702 554.516 423.365 555.039 422.702C555.565 422.042 554.745 413.664 554.745 413.664Z" fill="#00123F"/>
<path d="M541.21 293.422L541.896 352.971L546.528 410.875L555.216 412.359C555.216 412.359 562.449 310.063 569.938 298.76C577.417 287.47 568.944 268.829 568.905 268.793L541.21 293.422Z" fill="#2164A9"/>
<path d="M565.836 296.727C569.055 291.866 571.435 285.42 570.837 278.082C570.644 275.706 566.829 273.071 566.349 271.064L541.206 293.422L541.893 352.971L544.472 385.223C549.107 357.442 557.72 317.548 559.449 306.121C560.191 305.098 562.652 301.538 565.836 296.727Z" fill="#0B56A2"/>
<path d="M531.217 265.596C531.217 265.596 526.804 319.934 526.448 338.095C526.085 356.651 528.416 412.313 528.416 412.313L538.644 412.359C538.644 412.359 553.833 321.817 556.366 304.885C556.366 304.885 554.918 307.324 562.407 296.02C569.886 284.731 564.407 268.825 564.371 268.792L551.071 273.758L531.217 265.596Z" fill="#1B87F4"/>
<path d="M577.328 239.228L567.888 255.071L572 264.504C572 264.504 597.051 244.797 594.897 239.394C593.083 234.848 568.048 207.969 561.286 200.585C560.06 199.248 558.164 198.774 556.451 199.366L544.838 203.39C544.841 203.393 578.355 235.74 577.328 239.228Z" fill="#BE4800"/>
<path d="M534.669 199.191C534.669 199.191 531.691 275.635 524.065 291.132C524.065 291.132 558.674 286.033 574.56 286.036C574.56 286.036 574.184 221.287 566.506 206.921C558.824 192.556 542.138 195.197 534.669 199.191Z" fill="#FD7B2A"/>
<path d="M552.163 227.366C559.573 223.43 561.949 217.991 562.093 211.068C562.194 206.035 545.299 208.666 534.192 209.359C533.986 213.288 533.714 218.135 533.368 223.506C537.634 228.183 546.805 230.213 552.163 227.366Z" fill="#AB3400"/>
<path d="M495.589 202.411C495.589 202.411 519.548 222.948 538.653 222.176C557.755 221.405 560.256 216.812 561.897 211.72C563.538 206.627 552.65 199.645 541.729 197.55C530.809 195.455 511.34 195.664 508.346 192.905C505.352 190.146 489.989 169.413 488.695 165.805L479.432 169.747L495.589 202.411Z" fill="#FD7B2A"/>
<path d="M545.841 166.602C545.841 166.602 542.599 168.206 539.84 172.299C537.081 176.394 534.116 178.591 534.116 178.591L535.414 180.683C535.414 180.683 532.463 182.814 532.744 186.053C533.368 193.195 544.406 194.447 549.904 190.303C551.398 189.175 556.03 187.763 557.543 185.223C561.599 178.411 560.406 167.935 545.841 166.602Z" fill="#FC7575"/>
<path d="M551.251 181.874C551.251 181.874 547.577 175.072 549.313 170.289C549.313 170.289 545.295 170.211 542.069 168.39C536.254 165.102 543.321 152.867 552.058 161.588C552.058 161.588 551.306 155.672 557.494 156.728C563.682 157.784 565.944 160.251 564.826 166.128C563.711 172.006 583.839 195.687 585.722 199.119C587.605 202.551 569.075 208.768 564.433 209.223C559.792 209.677 550.836 189.506 550.836 189.506C550.836 189.506 557.461 185.793 555.601 182.985C553.748 180.174 551.251 181.874 551.251 181.874Z" fill="#320063"/>
<path d="M407.995 248.804C409.23 247.817 419.569 254.243 425.508 258.081C425.522 257.999 425.531 257.921 425.544 257.842C419.955 253.697 410.172 248.749 412.411 247.324C413.558 246.595 438.116 256.489 438.119 256.492C440.704 257.662 440.822 257.773 443.493 258.953C442.858 257.414 436.436 246.951 440.77 247.464L455.113 266.22C457.545 270.207 457.46 272.626 456.855 274.708C456.11 277.268 452.514 284.135 446.653 285.515C441.008 286.842 425.705 278.199 423.309 275.964C420.736 273.751 403.19 258.411 405.991 254.139C405.991 254.139 420.618 268.42 422.171 266.648C422.263 266.239 407.707 256.574 406.566 252.799C405.749 250.095 418.478 258.336 424.054 262.467C419.056 258.362 407.142 249.484 407.995 248.804Z" fill="#FC7575"/>
<path d="M141.53 423.103H96.4941C86.6522 423.103 78.6734 415.124 78.6734 405.282V290.859C78.6734 281.017 86.6522 273.035 96.4941 273.035H141.53C151.372 273.035 159.351 281.014 159.351 290.859V405.282C159.354 415.124 151.375 423.103 141.53 423.103Z" fill="#2C46E6"/>
<path d="M141.53 273.035H139.239C149.08 273.035 157.059 281.014 157.059 290.859V405.282C157.059 415.124 149.08 423.103 139.239 423.103H141.53C151.372 423.103 159.351 415.124 159.351 405.282V290.859C159.354 281.014 151.375 273.035 141.53 273.035Z" fill="#2134AD"/>
<path d="M96.4942 420.813C87.9302 420.813 80.9614 413.844 80.9614 405.28V290.857C80.9614 282.293 87.9302 275.324 96.4942 275.324H141.53C150.094 275.324 157.063 282.293 157.063 290.857V405.28C157.063 413.844 150.094 420.813 141.53 420.813H96.4942Z" fill="#CBD4FF"/>
<path d="M127.246 283.306H112.082C111.622 283.306 111.246 282.93 111.246 282.47C111.246 282.009 111.622 281.633 112.082 281.633H127.246C127.707 281.633 128.083 282.009 128.083 282.47C128.083 282.93 127.707 283.306 127.246 283.306Z" fill="#8088C2"/>
<path d="M128.785 288.872H110.543C110.036 288.872 109.624 288.46 109.624 287.954C109.624 287.447 110.036 287.035 110.543 287.035H128.785C129.292 287.035 129.704 287.447 129.704 287.954C129.704 288.46 129.292 288.872 128.785 288.872Z" fill="#8088C2"/>
<path d="M105.476 287.954C105.476 288.65 104.911 289.212 104.218 289.212C103.525 289.212 102.96 288.647 102.96 287.954C102.96 287.258 103.525 286.695 104.218 286.695C104.911 286.695 105.476 287.261 105.476 287.954Z" fill="#8088C2"/>
<path d="M119.012 417.898C122.807 417.898 125.883 414.822 125.883 411.027C125.883 407.232 122.807 404.156 119.012 404.156C115.217 404.156 112.141 407.232 112.141 411.027C112.141 414.822 115.217 417.898 119.012 417.898Z" fill="#727586"/>
<path d="M117.881 417.898C121.676 417.898 124.752 414.822 124.752 411.027C124.752 407.232 121.676 404.156 117.881 404.156C114.086 404.156 111.01 407.232 111.01 411.027C111.01 414.822 114.086 417.898 117.881 417.898Z" fill="#DFE5FF"/>
<path d="M148.888 400.204H88.8618C86.8418 400.204 85.2042 398.567 85.2042 396.547V303.958C85.2042 301.938 86.8418 300.301 88.8618 300.301H148.888C150.908 300.301 152.545 301.938 152.545 303.958V396.547C152.545 398.57 150.908 400.204 148.888 400.204Z" fill="#676E9C"/>
<path d="M86.7339 396.411V304.097C86.7339 302.993 87.6295 302.094 88.7376 302.094H149.015C150.12 302.094 151.019 302.989 151.019 304.097V396.411C151.019 397.519 150.123 398.415 149.015 398.415H88.7376C87.6295 398.415 86.7339 397.516 86.7339 396.411Z" fill="white"/>
<path d="M149.169 302.094H88.584C87.5641 302.094 86.7339 303.068 86.7339 304.264V318.208H151.019V304.264C151.016 303.068 150.189 302.094 149.169 302.094Z" fill="#BADCFF"/>
<path d="M138.291 321.17H101.747V323.628H138.291V321.17Z" fill="#6B9ECE"/>
<path d="M93.134 322.4L96.589 324.737V320.062L93.134 322.4Z" fill="#6B9ECE"/>
<path d="M144.38 322.4L140.928 324.737V320.062L144.38 322.4Z" fill="#6B9ECE"/>
<path d="M107.565 313.731H91.6925C90.0483 313.731 88.7147 312.398 88.7147 310.757V309.191C88.7147 307.547 90.0483 306.217 91.6925 306.217H107.565C109.209 306.217 110.543 307.55 110.543 309.191V310.757C110.543 312.401 109.209 313.731 107.565 313.731Z" fill="#00B3BF"/>
<path d="M146.312 313.73H142.448C141.605 313.73 140.919 313.047 140.919 312.2V307.739C140.919 306.895 141.602 306.209 142.448 306.209H146.312C147.155 306.209 147.842 306.892 147.842 307.739V312.2C147.842 313.047 147.158 313.73 146.312 313.73Z" fill="#6B9ECE"/>
<path d="M144.936 307.441H143.828V312.318H144.936V307.441Z" fill="white"/>
<path d="M142.3 309.232V310.529H146.461V309.232H142.3Z" fill="white"/>
<path opacity="0.18" d="M97.0498 333.549H89.9405V395.032H97.0498V333.549Z" fill="#6B9ECE"/>
<path opacity="0.18" d="M105.581 333.549H98.4717V395.032H105.581V333.549Z" fill="#6B9ECE"/>
<path opacity="0.18" d="M114.181 333.549H107.072V395.032H114.181V333.549Z" fill="#6B9ECE"/>
<path opacity="0.18" d="M122.778 333.549H115.668V395.032H122.778V333.549Z" fill="#6B9ECE"/>
<path opacity="0.18" d="M131.377 333.549H124.268V395.032H131.377V333.549Z" fill="#6B9ECE"/>
<path opacity="0.18" d="M139.974 333.549H132.865V395.032H139.974V333.549Z" fill="#6B9ECE"/>
<path opacity="0.18" d="M148.574 333.549H141.464V395.032H148.574V333.549Z" fill="#6B9ECE"/>
<path d="M97.0498 326.498H89.9405V331.169H97.0498V326.498Z" fill="#6B9ECE"/>
<path d="M105.581 326.498H98.4717V331.169H105.581V326.498Z" fill="#6B9ECE"/>
<path d="M114.181 326.498H107.072V331.169H114.181V326.498Z" fill="#6B9ECE"/>
<path d="M122.778 326.498H115.668V331.169H122.778V326.498Z" fill="#6B9ECE"/>
<path d="M131.377 326.498H124.268V331.169H131.377V326.498Z" fill="#6B9ECE"/>
<path d="M139.974 326.498H132.865V331.169H139.974V326.498Z" fill="#FD6100"/>
<path d="M148.574 326.498H141.464V331.169H148.574V326.498Z" fill="#FD6100"/>
<path d="M149.296 340.635H88.718V342.161H149.296V340.635Z" fill="white"/>
<path d="M149.296 349.811H88.718V351.337H149.296V349.811Z" fill="white"/>
<path d="M149.296 358.984H88.718V360.511H149.296V358.984Z" fill="white"/>
<path d="M149.296 368.16H88.718V369.687H149.296V368.16Z" fill="white"/>
<path d="M149.296 377.336H88.718V378.862H149.296V377.336Z" fill="white"/>
<path d="M149.165 386.512H88.5872V388.038H149.165V386.512Z" fill="white"/>
<path d="M118.064 351.899L112.23 349.389C112.439 349.644 119.741 358.583 119.538 358.335C121.009 355.03 124.268 347.725 125.778 344.332L118.064 351.899Z" fill="#FF1F20"/>
<path d="M533.368 285.215C548.981 285.215 561.639 272.558 561.639 256.945C561.639 241.331 548.981 228.674 533.368 228.674C517.754 228.674 505.097 241.331 505.097 256.945C505.097 272.558 517.754 285.215 533.368 285.215Z" fill="#FD7B2A"/>
<defs>
<linearGradient id="paint0_linear" x1="330.895" y1="382.811" x2="313.659" y2="117.565" gradientUnits="userSpaceOnUse">
<stop stop-color="#0082C1"/>
<stop offset="1" stop-color="#8DDCFF"/>
</linearGradient>
<linearGradient id="paint1_linear" x1="326.412" y1="369.6" x2="315.92" y2="208.129" gradientUnits="userSpaceOnUse">
<stop stop-color="#0082C1"/>
<stop offset="1" stop-color="#8DDCFF"/>
</linearGradient>
<linearGradient id="paint2_linear" x1="346.997" y1="337.484" x2="350.827" y2="156.175" gradientUnits="userSpaceOnUse">
<stop stop-color="#6EA7E8"/>
<stop offset="1" stop-color="#9AD2FF"/>
</linearGradient>
</defs>
</svg>
