<svg width="15" height="16" viewBox="0 0 15 16" fill="none" xmlns="http://www.w3.org/2000/svg">
<path d="M10.7677 9.66667H10.1124L9.88009 9.44167C10.6931 8.49167 11.1825 7.25833 11.1825 5.91667C11.1825 2.925 8.76847 0.5 5.79034 0.5C2.81221 0.5 0.398186 2.925 0.398186 5.91667C0.398186 8.90833 2.81221 11.3333 5.79034 11.3333C7.12594 11.3333 8.35369 10.8417 9.29939 10.025L9.52337 10.2583V10.9167L13.6712 15.075L14.9072 13.8333L10.7677 9.66667ZM5.79034 9.66667C3.72473 9.66667 2.05731 7.99167 2.05731 5.91667C2.05731 3.84167 3.72473 2.16667 5.79034 2.16667C7.85595 2.16667 9.52337 3.84167 9.52337 5.91667C9.52337 7.99167 7.85595 9.66667 5.79034 9.66667Z" fill="#C2CFE0"/>
</svg>
