<svg width="55" height="63" fill="none" xmlns="http://www.w3.org/2000/svg"><path d="M18.775.654S3.143 5.673.483 22.392c-3.45 22.015 12.078 35.47 30.978 39.961 18.9 4.492 27.44-15.543 21.223-25.292-6.217-9.748-10.705-8.184-10.346-20.632C42.678 3.934 28.181-2.092 18.772.654h.003z" fill="#fff"/><path d="M22.717 49.855a10.704 10.704 0 012.31 2.432 16.87 16.87 0 003.125 3.099c3.605 2.835 8.513 4.418 12.918 2.517 3.56-1.535 6.214-4.891 7.346-8.553a11.02 11.02 0 00-2.746-10.87 10.626 10.626 0 00-4.708-2.801c-2.028-.547-4.151-.496-6.233-.547-.4.018-.799-.05-1.17-.2-.563-.28-.855-.871-1.3-1.272a3.722 3.722 0 00-2.018-.845c-1.94-.254-4.736.22-5.496 2.31a14.874 14.874 0 00-.658 3.58.385.385 0 11-.77 0l-.393-5.658a1.295 1.295 0 011.43-1.373c2.86.318 8.789.693 10.28-1.326l.057-.08a2.26 2.26 0 00-2.699-3.387c-1.97.791-5.327 2.24-7.473-.134-3.194-3.531-5.791-4.917-7.6-2.683-1.103 1.364-1.185 5.166-1.084 8.43a.353.353 0 11-.702.073c-.5-2.86-.687-6.847 1.157-9.854a2.732 2.732 0 014.075-.696c3.36 2.654 10.244 7.2 13.426 2.861 3.532-4.806.048-10.041-1.313-11.76a.222.222 0 01.245-.354c1.329.414 3.106.7 3.636-1.004.585-1.866-.953-3.843-2.457-4.736a10.362 10.362 0 00-4.685-1.494c-1.538-.067-3.738.518-3.852 2.387v.124c0 .636-.191.451-.636.2a9.835 9.835 0 00-3.954-1.087c-3.153-.283-6.462.188-9.132 1.98-2.343 1.57-3.942 3.98-4.968 6.57-1.224 3.093-1.73 6.447-1.933 9.75-.299 4.767.156 9.894 2.575 14.115a18.327 18.327 0 004.148 4.95c1.713 1.43 3.652 2.393 5.68 3.277.654.3 1.331.55 2.025.746.994.258 2.024.461 2.94.954.209.108.412.228.607.36z" fill="#90B34F"/></svg>