<svg id="SvgjsSvg1014" width="288" height="288" xmlns="http://www.w3.org/2000/svg" version="1.1" xmlns:xlink="http://www.w3.org/1999/xlink" xmlns:svgjs="http://svgjs.com/svgjs"><defs id="SvgjsDefs1015"></defs><g id="SvgjsG1016"><svg xmlns="http://www.w3.org/2000/svg" width="288" height="288" version="1.0" viewBox="0 0 363 363"><g transform="matrix(.1 0 0 -.1 0 363)" fill="#ffffff" class="color000 svgShape"><path d="M310 2781 c0 -6 49 -65 108 -133 403 -459 723 -831 720 -838 -4 -10-101 -124 -517 -605 -171 -198 -311 -363 -311 -367 0 -10 541 -10 556 0 6 4
198 225 428 490 373 432 416 486 403 500 -20 25 -468 541 -630 727 -77 88
-155 177 -174 198 l-34 37 -274 0 c-165 0 -275 -4 -275 -9z" fill="#ffffff" class="color000 svgShape"></path><path d="M1127 2766 c10 -13 194 -225 408 -471 215 -246 396 -456 403 -466 12
-17 1 -33 -105 -155 -65 -75 -163 -189 -218 -253 -55 -64 -189 -219 -298 -344
-108 -126 -197 -232 -197 -238 0 -11 157 -12 394 -2 l166 6 403 466 c221 256
410 475 419 486 19 24 84 -56 -565 688 l-267 307 -281 0 -281 0 19 -24z" fill="#ffffff" class="color000 svgShape"></path><path d="M1932 2773 c87 -103 238 -278 507 -587 319 -367 321 -369 303 -391
-9 -13 -127 -151 -262 -307 -135 -155 -317 -365 -403 -466 l-158 -182 283 0
283 0 85 99 c529 612 745 865 748 875 1 6 -115 146 -259 311 -144 165 -316
363 -383 439 -66 76 -137 158 -156 182 l-35 43 -284 1 c-270 0 -283 -1 -269
-17z" fill="#ffffff" class="color000 svgShape"></path></g></svg></g></svg>