<svg width="17" height="17" fill="none" xmlns="http://www.w3.org/2000/svg"><g clip-path="url(#clip0)" fill="#C6D1E1"><path d="M2.833 4.781a3.369 3.369 0 013.365-3.364h6.47A1.944 1.944 0 0010.801 0H2.656A1.95 1.95 0 00.708 1.948v10.98a1.95 1.95 0 001.948 1.947h.177V4.781z"/><path d="M14.344 2.833H6.198A1.95 1.95 0 004.25 4.781v10.271A1.95 1.95 0 006.198 17h8.146a1.95 1.95 0 001.948-1.948V4.782a1.95 1.95 0 00-1.948-1.949zm-1.417 12.042H7.615a.531.531 0 010-1.063h5.312a.531.531 0 010 1.063zm0-2.833H7.615a.531.531 0 010-1.063h5.312a.531.531 0 010 1.063zm0-2.48H7.615a.531.531 0 010-1.062h5.312a.531.531 0 010 1.062zm0-2.833H7.615a.531.531 0 010-1.062h5.312a.531.531 0 010 1.062z"/></g><defs><clipPath id="clip0"><path fill="#fff" d="M0 0h17v17H0z"/></clipPath></defs></svg>