<svg width="19" height="19" fill="none" xmlns="http://www.w3.org/2000/svg"><g clip-path="url(#clip0)"><path d="M16.218 2.782A9.438 9.438 0 009.5 0a9.438 9.438 0 00-6.718 2.782A9.438 9.438 0 000 9.5a9.44 9.44 0 002.782 6.718A9.438 9.438 0 009.5 19a9.438 9.438 0 006.718-2.782A9.438 9.438 0 0019 9.5a9.438 9.438 0 00-2.782-6.718zm-2.609 9.515a.928.928 0 01-1.312 1.312L9.5 10.812l-2.797 2.797a.926.926 0 01-1.312 0 .928.928 0 010-1.312L8.188 9.5 5.391 6.703a.928.928 0 011.312-1.312L9.5 8.188l2.797-2.797a.928.928 0 111.312 1.312L10.812 9.5l2.797 2.797z" fill="#C2CFE0"/></g><defs><clipPath id="clip0"><path fill="#fff" d="M0 0h19v19H0z"/></clipPath></defs></svg>