<svg width="10" height="10" viewBox="0 0 10 10" fill="none" xmlns="http://www.w3.org/2000/svg">
<path d="M6.17554 1.67969L0.673399 7.18222C0.645718 7.20999 0.62573 7.24504 0.616212 7.28272L0.00635232 9.73056C-0.0118903 9.80425 0.00976291 9.88261 0.0635391 9.93639C0.104228 9.97708 0.15967 9.9996 0.216381 9.9996C0.233751 9.9996 0.251518 9.99746 0.268809 9.9931L2.71665 9.38316C2.75481 9.37364 2.78947 9.35373 2.81715 9.32605L8.31977 3.82391L6.17554 1.67969Z" fill="#3796F6"/>
<path d="M9.68284 0.929106L9.07037 0.316629C8.66102 -0.0927204 7.94757 -0.0923238 7.5387 0.316629L6.78845 1.06688L8.93259 3.21102L9.68284 2.46078C9.88732 2.25638 9.99995 1.98432 9.99995 1.69498C9.99995 1.40564 9.88732 1.13358 9.68284 0.929106Z" fill="#3796F6"/>
</svg>
