<svg width="39" height="34" fill="none" xmlns="http://www.w3.org/2000/svg"><path fill-rule="evenodd" clip-rule="evenodd" d="M1 2.194a1 1 0 00-1 1V33a1 1 0 001 1h36.387a1 1 0 001-1V3.194a1 1 0 00-1-1H1zm2.02 2.193a1 1 0 00-1 1v25.42a1 1 0 001 1h32.346a1 1 0 001-1V5.387a1 1 0 00-1-1H3.02z" fill="#D6D6D6"/><rect x="6.581" y="13.161" width="6.581" height="2.194" rx="1.097" fill="#D6D6D6"/><rect x="7.677" y="7.677" width="7.677" height="2.194" rx="1.097" transform="rotate(-90 7.677 7.677)" fill="#D6D6D6"/><rect x="28.516" y="7.677" width="7.677" height="2.194" rx="1.097" transform="rotate(-90 28.516 7.677)" fill="#D6D6D6"/><rect x="6.581" y="18.645" width="6.581" height="2.194" rx="1.097" fill="#D6D6D6"/><rect x="6.581" y="24.129" width="6.581" height="2.194" rx="1.097" fill="#D6D6D6"/><rect x="16.452" y="13.161" width="6.581" height="2.194" rx="1.097" fill="#D6D6D6"/><rect x="16.452" y="18.645" width="6.581" height="2.194" rx="1.097" fill="#D6D6D6"/><rect x="16.452" y="24.129" width="6.581" height="2.194" rx="1.097" fill="#D6D6D6"/><rect x="26.323" y="13.161" width="6.581" height="2.194" rx="1.097" fill="#D6D6D6"/><rect x="26.323" y="18.645" width="6.581" height="2.194" rx="1.097" fill="#D6D6D6"/><rect x="26.323" y="24.129" width="6.581" height="2.194" rx="1.097" fill="#D6D6D6"/></svg>