<svg width="37" height="37" fill="none" xmlns="http://www.w3.org/2000/svg"><path d="M31.567 5.423C28.073 1.929 23.432 0 18.49 0A18.37 18.37 0 005.413 5.423c-6.74 6.74-7.228 17.508-1.224 24.806-.83 1.697-1.806 2.828-2.913 3.37a1.732 1.732 0 00-.946 1.805c.117.752.69 1.333 1.441 1.449.411.062.853.1 1.31.1 2.27 0 4.656-.782 6.647-2.153A18.514 18.514 0 0018.49 37c4.942 0 9.583-1.921 13.077-5.415a18.378 18.378 0 005.415-13.077c0-4.935-1.921-9.591-5.415-13.085zm-1.48 24.674A16.297 16.297 0 0118.49 34.9c-2.929 0-5.803-.782-8.305-2.254a1.082 1.082 0 00-.527-.147c-.225 0-.457.077-.643.217-2.37 1.836-4.757 2.107-5.803 2.13 1.248-.93 2.294-2.37 3.169-4.377a1.053 1.053 0 00-.178-1.115C.47 22.877.773 13.007 6.893 6.887A16.297 16.297 0 0118.49 2.084c4.377 0 8.498 1.704 11.597 4.803 6.399 6.407 6.399 16.819 0 23.21z" fill="#D6D6D6"/><path d="M26.236 12.395H10.742c-.581 0-1.046.465-1.046 1.046s.465 1.046 1.046 1.046h15.494a1.046 1.046 0 000-2.092zm0 5.059H10.742c-.581 0-1.046.465-1.046 1.046 0 .58.465 1.046 1.046 1.046h15.494a1.046 1.046 0 000-2.092zm0 5.059H10.742c-.581 0-1.046.465-1.046 1.046 0 .58.465 1.046 1.046 1.046h15.494a1.047 1.047 0 000-2.092z" fill="#D6D6D6"/></svg>