<svg width="38" height="38" fill="none" xmlns="http://www.w3.org/2000/svg"><g clip-path="url(#clip0)" fill="#90B34F"><path d="M19.753 5H10a1 1 0 000 2h9.753a1 1 0 100-2zM16 10h-6a1 1 0 100 2h6a1 1 0 100-2z"/><path d="M33.851 6.565L27.518.232a.792.792 0 00-.56-.232H6.375A2.375 2.375 0 004 2.375v33.25A2.375 2.375 0 006.375 38h25.333a2.375 2.375 0 002.375-2.375v-28.5a.791.791 0 00-.232-.56zM32.5 35.625a.792.792 0 01-.792.792H6.375a.792.792 0 01-.792-.792V2.375c0-.437.355-.792.792-.792h20.256l5.869 5.87v28.172z" stroke="#90B34F" stroke-width=".3" stroke-linejoin="round"/><path d="M28.5 6.333a.792.792 0 01-.792-.791V.792h-1.583v4.75A2.375 2.375 0 0028.5 7.917h1.583V6.333H28.5zM25 20h-2a1 1 0 01-1-1v-2a2 2 0 00-2-2h-2a2 2 0 00-2 2v2a1 1 0 01-1 1h-2a2 2 0 00-2 2v2a2 2 0 002 2h2a1 1 0 011 1v2a2 2 0 002 2h2a2 2 0 002-2v-2a1 1 0 011-1h2a2 2 0 002-2v-2a2 2 0 00-2-2zm0 3a1 1 0 01-1 1h-3a1 1 0 00-1 1v3a1 1 0 11-2 0v-3a1 1 0 00-1-1h-3a1 1 0 010-2h3a1 1 0 001-1v-3a1 1 0 112 0v3a1 1 0 001 1h3a1 1 0 011 1z"/></g><defs><clipPath id="clip0"><path fill="#fff" d="M0 0h38v38H0z"/></clipPath></defs></svg>