<svg width="39" height="39" fill="none" xmlns="http://www.w3.org/2000/svg"><path d="M37.949 16.963l-.003-.003L22.037 1.052A3.566 3.566 0 0019.498 0c-.959 0-1.86.373-2.539 1.052l-15.9 15.9-.016.016a3.595 3.595 0 00.006 5.07 3.57 3.57 0 002.383 1.047c.037.004.073.006.11.006h.634v11.707A4.207 4.207 0 008.38 39h6.224c.63 0 1.142-.512 1.142-1.142v-9.18a1.92 1.92 0 011.918-1.916h3.67a1.92 1.92 0 011.918 1.917v9.179c0 .63.511 1.142 1.142 1.142h6.225a4.207 4.207 0 004.202-4.202V23.091h.588a3.57 3.57 0 002.539-1.052 3.596 3.596 0 00.002-5.076zm-1.618 3.46a1.297 1.297 0 01-.923.383h-1.73c-.632 0-1.143.511-1.143 1.142v12.85a1.92 1.92 0 01-1.917 1.917h-5.082v-8.036a4.207 4.207 0 00-4.202-4.202h-3.671a4.207 4.207 0 00-4.203 4.202v8.036H8.38a1.92 1.92 0 01-1.917-1.917v-12.85c0-.63-.512-1.142-1.143-1.142h-1.7a1.05 1.05 0 00-.054-.003 1.295 1.295 0 01-.9-.38 1.307 1.307 0 010-1.846h.001l.001-.002L18.576 2.668c.246-.247.574-.383.922-.383.349 0 .676.136.923.383l15.905 15.904.007.007c.506.51.505 1.336-.002 1.844z" fill="#D6D6D6"/></svg>