<svg width="38" height="38" fill="none" xmlns="http://www.w3.org/2000/svg"><g clip-path="url(#clip0)" fill="#D6D6D6"><path d="M19 18.5c-.655 0-1-.345-1-1V16H6v1.563c0 .655-.345 1.187-1 1.187s-1-.532-1-1.188v-2.375C4 14.533 4.532 14 5.188 14h13.458C19.3 14 20 14.345 20 15v2.5c0 .655-.345 1-1 1z"/><path d="M12 30c-.553 0-1-.531-1-1.185V16.183c0-.653.447-1.184 1-1.184.552 0 1 .53 1 1.184v12.632C13 29.47 12.551 30 12 30z"/><path d="M13.875 30h-3.75C9.504 30 9 29.552 9 29s.504-1 1.125-1h3.75c.621 0 1.125.448 1.125 1s-.504 1-1.125 1zm18.438-14h-7.126C24.532 16 24 15.655 24 15s.532-1 1.188-1h7.125c.655 0 1.187.345 1.187 1s-.532 1-1.188 1zm0 4h-7.126C24.532 20 24 19.655 24 19s.532-1 1.188-1h7.125c.655 0 1.187.345 1.187 1s-.532 1-1.188 1zm.007 4h-7.124c-.656 0-1.197-.344-1.197-1 0-.655.541-1 1.197-1h7.125c.655 0 1.178.345 1.178 1 0 .656-.523 1-1.178 1z"/><path d="M33.646 36H4.354C1.952 36 0 34.463 0 32.061V5.937C0 3.535 1.952 2 4.354 2h29.292C36.048 2 38 3.535 38 5.937v26.125C38 34.464 36.048 36 33.646 36zM4.354 3.957C3.264 3.958 2 4.908 2 6v26c0 1.091 1.263 2.043 2.354 2.043h29.292c1.09 0 2.354-.952 2.354-2.043V5.861c0-1.091-1.263-1.903-2.354-1.903H4.354z"/><path d="M36.813 9H1.187C.532 9 0 8.58 0 8.062c0-.517.532-.937 1.188-.937h35.624c.656 0 1.188.42 1.188.938 0 .517-.532.937-1.188.937z"/></g><defs><clipPath id="clip0"><path fill="#fff" d="M0 0h38v38H0z"/></clipPath></defs></svg>