<svg width="38" height="34" fill="none" xmlns="http://www.w3.org/2000/svg"><path d="M19 16.5c-.655 0-1-.344-1-1V14H6v1.563c0 .656-.345 1.188-1 1.188s-1-.532-1-1.188v-2.375c0-.655.532-1.187 1.188-1.187h13.458C19.3 12 20 12.345 20 13v2.5c0 .655-.345 1-1 1z" fill="#90B34F"/><path d="M12 28c-.553 0-1-.53-1-1.184V14.184c0-.653.447-1.184 1-1.184.552 0 1 .53 1 1.184v12.632C13 27.47 12.551 28 12 28z" fill="#90B34F"/><path d="M13.875 28h-3.75C9.504 28 9 27.554 9 27c0-.551.504-1 1.125-1h3.75c.621 0 1.125.449 1.125 1 0 .553-.504 1-1.125 1zm18.438-14h-7.126C24.532 14 24 13.657 24 13c0-.655.532-1 1.188-1h7.125c.655 0 1.187.345 1.187 1 0 .656-.532 1-1.188 1zm0 4h-7.126C24.532 18 24 17.657 24 17c0-.655.532-1 1.188-1h7.125c.655 0 1.187.345 1.187 1 0 .656-.532 1-1.188 1zm.007 4.001h-7.124c-.656 0-1.197-.344-1.197-1 0-.655.541-1 1.197-1h7.125c.655 0 1.178.345 1.178 1 0 .656-.523 1-1.178 1z" fill="#90B34F"/><path d="M33.646 34H4.354C1.952 34 0 32.465 0 30.063V3.938C0 1.536 1.952 0 4.354 0h29.292C36.048 0 38 1.536 38 3.938v26.125C38 32.465 36.048 34 33.646 34zM4.354 1.959C3.264 1.959 2 2.909 2 4v26c0 1.09 1.263 2.042 2.354 2.042h29.292c1.09 0 2.354-.951 2.354-2.042V3.861c0-1.09-1.263-1.902-2.354-1.902H4.354z" fill="#90B34F"/><path d="M36.813 7H1.187C.532 7 0 6.58 0 6.064c0-.517.532-.937 1.188-.937h35.624c.656 0 1.188.42 1.188.937 0 .518-.532.938-1.188.938z" fill="#90B34F"/></svg>